<?xml version="1.0" standalone="no"?>
  <!DOCTYPE svg PUBLIC "-//W3C//DTD SVG 1.1//EN" "http://www.w3.org/Graphics/SVG/1.1/DTD/svg11.dtd" >
  <svg>
  <metadata>
  Created by font-carrier
  </metadata>
  <defs>
  <font id="CaviarDreams-Bold" horiz-adv-x="3034" vert-adv-y="3034" >
    <font-face
      
      font-family="Caviar Dreams"
      
      font-weight="400"
      
      font-stretch="normal"
      
      units-per-em="2048"
      
      ascent="2009"
      
      descent="-584"
      
    />
      <missing-glyph />

      

      
      <glyph glyph-name="uni21" unicode="&#x21;" d="M270 277Q330 277 372.50 235Q415 193 415 133Q415 71 372.50 29Q330-13 270-13Q211-13 168 29Q125 71 125 133Q125 193 168 235Q211 277 270 277M372 1600L372 455L165 455L165 1600L372 1600Z"  horiz-adv-x="541" vert-adv-y="2048"  />

      
      <glyph glyph-name="uni22" unicode="&#x22;" d="M25 920L25 1597L232 1597L232 920L25 920M342 920L342 1597L549 1597L549 920L342 920Z"  horiz-adv-x="574" vert-adv-y="2048"  />

      
      <glyph glyph-name="uni23" unicode="&#x23;" d="M873 1033L957 1033L1059 1443L1270 1443L1168 1033L1579 1033L1526 826L1116 826L1094 738L1505 738L1452 531L1042 531L940 120L729 120L831 531L747 531L645 120L433 120L536 531L125 531L178 738L588 738L610 826L199 826L252 1033L662 1033L764 1443L975 1443L873 1033M905 826L821 826L799 738L883 738L905 826Z"  horiz-adv-x="1705" vert-adv-y="2048"  />

      
      <glyph glyph-name="uni24" unicode="&#x24;" d="M571 117L571 0L387 0L387 117Q268 139 177 220Q78 308 50 475L262 543Q279 397 331 351Q357 328 387 314L387 728Q272 771 178 854Q54 963 54 1117Q54 1271 179 1382Q269 1462 387 1484L387 1600L571 1600L571 1484Q690 1462 781 1381Q880 1293 908 1126L696 1058Q679 1204 627 1250Q601 1273 571 1287L571 873Q686 830 780 747Q904 638 904 484Q904 330 780 220Q689 139 571 117M387 946L387 1287Q358 1274 333 1252Q271 1197 271 1117Q271 1039 331 985Q354 965 387 946M571 655L571 314Q600 327 626 350Q687 404 687 484Q687 562 627 616Q604 636 571 655Z"  horiz-adv-x="958" vert-adv-y="2048"  />

      
      <glyph glyph-name="uni25" unicode="&#x25;" d="M1176 1290L258-21L88 97L1005 1407L1176 1290M355 1245Q469 1245 549.50 1164.50Q630 1084 630 970Q630 856 549.50 775.50Q469 695 355 695Q241 695 160.50 775.50Q80 856 80 970Q80 1084 160.50 1164.50Q241 1245 355 1245M355 1040Q326 1040 305.50 1019.50Q285 999 285 970Q285 940 305.50 919.50Q326 899 355 899Q384 899 405 919.50Q426 940 426 970Q426 999 405 1019.50Q384 1040 355 1040M908 692Q1023 692 1103.50 611.50Q1184 531 1184 417Q1184 302 1103.50 221.50Q1023 141 908 141Q794 141 713.50 221.50Q633 302 633 417Q633 531 713.50 611.50Q794 692 908 692M908 487Q879 487 858.50 466.50Q838 446 838 417Q838 387 858.50 366.50Q879 346 908 346Q937 346 958 366.50Q979 387 979 417Q979 446 958 466.50Q937 487 908 487Z"  horiz-adv-x="1263" vert-adv-y="2048"  />

      
      <glyph glyph-name="uni26" unicode="&#x26;" d="M1118 779Q1211 725 1240 621Q1250 585 1250 551Q1250 484 1215 424Q1161 329 1039 293Q1017 220 927 130Q781-17 574-17Q368-17 221.50 129.50Q75 276 75 483Q75 688 218 841Q304 925 376 934Q221 1090 221 1245Q221 1398 330.50 1508Q440 1618 595 1618Q750 1618 860 1509Q922 1449 964 1318L776 1244Q742 1336 714 1364Q665 1412 595 1412Q526 1412 477 1363.50Q428 1315 428 1245Q428 1174 479.50 1119Q531 1064 574.50 1047Q618 1030 752 1029L752 830L630 829Q453 794 366.50 699.50Q280 605 280 483Q280 361 366 275Q452 189 574 189Q695 189 834 331Q806 354 735 428Q709 452 694 462Q680 471 671 471L670 471Q660 470 656 460Q654 456 654 452Q654 445 658 437L488 322Q467 353 456 392Q448 423 448 453Q448 510 478 563Q525 644 614 668Q645 677 676 677Q733 677 785 647Q829 622 885.50 553.50Q942 485 991 479Q998 478 1004 478Q1042 478 1058 513Q1062 522 1062 532Q1062 564 1016 602L1118 779Z"  horiz-adv-x="1340" vert-adv-y="2048"  />

      
      <glyph glyph-name="uni27" unicode="&#x27;" d="M125 920L125 1597L332 1597L332 920L125 920Z"  horiz-adv-x="458" vert-adv-y="2048"  />

      
      <glyph glyph-name="uni28" unicode="&#x28;" d="M688 1524Q541 1456 450 1342Q296 1148 296 800Q296 451 450 258Q541 143 688 72L688-133Q434-45 302 121Q100 373 100 800Q100 1227 302 1479Q434 1645 688 1733L688 1524Z"  horiz-adv-x="788" vert-adv-y="2048"  />

      
      <glyph glyph-name="uni29" unicode="&#x29;" d="M100 1733Q354 1645 486 1479Q688 1227 688 800Q688 373 486 121Q354-45 100-133L100 72Q247 143 338 258Q492 451 492 800Q492 1148 338 1342Q247 1456 100 1524L100 1733Z"  horiz-adv-x="788" vert-adv-y="2048"  />

      
      <glyph glyph-name="uni2a" unicode="&#x2a;" d="M569 1428L713 1538L832 1368L646 1228L832 1089L713 919L569 1029L569 860L362 860L362 1030L217 919L98 1089L284 1228L98 1368L217 1538L362 1427L362 1597L569 1597L569 1428Z"  horiz-adv-x="932" vert-adv-y="2048"  />

      
      <glyph glyph-name="uni2b" unicode="&#x2b;" d="M452 505L125 505L125 712L452 712L452 1039L660 1039L660 712L987 712L987 505L660 505L660 177L452 177L452 505Z"  horiz-adv-x="1112" vert-adv-y="2048"  />

      
      <glyph glyph-name="uni2c" unicode="&#x2c;" d="M438 278L207-202L10-202L138 278L438 278Z"  horiz-adv-x="537" vert-adv-y="2048"  />

      
      <glyph glyph-name="uni2d" unicode="&#x2d;" d="M125 712L793 712L793 505L125 505L125 712Z"  horiz-adv-x="919" vert-adv-y="2048"  />

      
      <glyph glyph-name="uniad" unicode="&#xad;" d="M125 712L793 712L793 505L125 505L125 712Z"  horiz-adv-x="919" vert-adv-y="2048"  />

      
      <glyph glyph-name="uni2e" unicode="&#x2e;" d="M245 277Q305 277 347.50 235Q390 193 390 133Q390 71 347.50 29Q305-13 245-13Q186-13 143 29Q100 71 100 133Q100 193 143 235Q186 277 245 277Z"  horiz-adv-x="490" vert-adv-y="2048"  />

      
      <glyph glyph-name="uni2f" unicode="&#x2f;" d="M674 1600L905 1600L180 0L-50 0L674 1600Z"  horiz-adv-x="855" vert-adv-y="2048"  />

      
      <glyph glyph-name="uni30" unicode="&#x30;" d="M1001 1032Q1001 1179 896.50 1283Q792 1387 644 1387Q497 1387 392.50 1283Q288 1179 288 1032L288 543Q288 395 392.50 291Q497 187 644 187Q792 187 896.50 291Q1001 395 1001 543L1001 1032M1213 543Q1213 308 1046.50 141.50Q880-25 644-25Q409-25 242.50 141.50Q76 308 76 543L76 1032Q76 1267 242.50 1433.50Q409 1600 644 1600Q880 1600 1046.50 1433.50Q1213 1267 1213 1032L1213 543Z"  horiz-adv-x="1289" vert-adv-y="2048"  />

      
      <glyph glyph-name="uni31" unicode="&#x31;" d="M893 1600L893 0L686 0L686 1330L533 1330L743 1600L893 1600Z"  horiz-adv-x="1427" vert-adv-y="2048"  />

      
      <glyph glyph-name="uni32" unicode="&#x32;" d="M153 0Q209 383 372 504.50Q535 626 650 712Q765 798 855.50 897Q946 996 946 1117Q946 1238 860.50 1323Q775 1408 654 1408Q535 1408 449 1323Q376 1250 358 1071L151 1146Q183 1354 300 1472Q447 1620 654 1620Q863 1620 1009.50 1473Q1156 1326 1156 1117Q1156 911 1014 758Q924 661 804.50 571.50Q685 482 539 372Q411 277 396 208L1156 208L1156 0L153 0Z"  horiz-adv-x="1308" vert-adv-y="2048"  />

      
      <glyph glyph-name="uni33" unicode="&#x33;" d="M599 824L474 827L474 1032Q610 1034 653 1050.50Q696 1067 747 1121Q798 1175 798 1245Q798 1314 750 1361.50Q702 1409 633 1409Q565 1409 517 1362Q490 1334 455 1240L262 1316Q305 1451 367 1510Q478 1620 633 1620Q791 1620 901 1509Q1011 1398 1011 1245Q1011 1089 826 944Q915 938 1013 843Q1156 689 1156 483Q1156 275 1009.50 127.50Q863-20 654-20Q447-20 300 128Q183 246 151 455L358 530Q376 350 449 277Q535 192 654 192Q775 192 860.50 277Q946 362 946 483Q946 605 860.50 698Q775 791 599 824Z"  horiz-adv-x="1308" vert-adv-y="2048"  />

      
      <glyph glyph-name="uni34" unicode="&#x34;" d="M854 1600L1035 1600L1035 639L1176 639L1176 432L1035 432L1035 0L828 0L828 432L173 432L854 1600M828 1133L533 639L828 639L828 1133Z"  horiz-adv-x="1350" vert-adv-y="2048"  />

      
      <glyph glyph-name="uni35" unicode="&#x35;" d="M450 1168Q506 1180 567 1180Q679 1180 782 1144Q1013 1065 1126 852Q1197 720 1197 580Q1197 493 1170 406Q1099 174 886 59Q756-10 617-10Q529-10 439 18Q253 75 117 260L263 422Q374 258 501 220Q559 202 614 202Q702 202 786 246Q923 319 968 468Q986 525 986 581Q986 668 941 753Q867 891 717 943Q652 966 573 966Q466 966 299 913L174 1022L354 1519L354 1600L940 1600L940 1393L529 1393L450 1168Z"  horiz-adv-x="1314" vert-adv-y="2048"  />

      
      <glyph glyph-name="uni36" unicode="&#x36;" d="M292 543Q292 395 396.50 291Q501 187 649 187Q796 187 900.50 291Q1005 395 1005 543Q1005 691 900.50 795Q796 899 649 899Q501 899 396.50 795Q292 691 292 543M412 987Q501 1083 707 1083Q914 1083 1051 946Q1217 779 1217 543Q1217 308 1051 141.50Q885-25 649-25Q414-25 247 141Q87 302 86 588L86 591Q86 874 239 1089Q393 1305 655 1600L927 1600Q564 1224 412 987Z"  horiz-adv-x="1291" vert-adv-y="2048"  />

      
      <glyph glyph-name="uni37" unicode="&#x37;" d="M1150 1600Q1143 1274 894.50 995.50Q646 717 510 524Q374 331 364 0L153 0Q165 409 319 624.50Q473 840 686 1078.50Q899 1317 915 1393L155 1393L155 1600L1150 1600Z"  horiz-adv-x="1304" vert-adv-y="2048"  />

      
      <glyph glyph-name="uni38" unicode="&#x38;" d="M647 192Q805 192 890.50 277Q976 362 976 483Q976 605 891 696Q807 788 647 821Q486 788 402 696Q318 605 318 483Q318 362 403 277Q488 192 647 192M647-20Q401-20 254 127.50Q107 275 107 483Q107 739 388 944Q253 1089 253 1245Q253 1398 362.50 1509Q472 1620 630 1620L663 1620Q821 1620 931 1509Q1041 1398 1041 1245Q1041 1089 895 947Q1187 739 1187 483Q1187 275 1040 127.50Q893-20 647-20M642 1408Q635 1409 630 1409Q562 1409 514 1361.50Q466 1314 466 1245Q466 1175 516.50 1121Q567 1067 608 1051Q630 1043 647 1040Q664 1043 686 1051Q726 1067 777 1121Q828 1175 828 1245Q828 1314 780 1361.50Q732 1409 663 1409Q659 1409 652 1408L642 1408Z"  horiz-adv-x="1294" vert-adv-y="2048"  />

      
      <glyph glyph-name="uni39" unicode="&#x39;" d="M1012 1057Q1012 1205 907.50 1309Q803 1413 655 1413Q508 1413 403.50 1309Q299 1205 299 1057Q299 909 403.50 805Q508 701 655 701Q803 701 907.50 805Q1012 909 1012 1057M892 613Q803 517 597 517Q390 517 253 654Q87 821 87 1057Q87 1292 253 1458.50Q419 1625 655 1625Q890 1625 1057 1459Q1217 1298 1218 1012L1218 1009Q1218 726 1065 511Q911 295 649 0L377 0Q740 376 892 613Z"  horiz-adv-x="1291" vert-adv-y="2048"  />

      
      <glyph glyph-name="uni3a" unicode="&#x3a;" d="M270 277Q330 277 372.50 235Q415 193 415 133Q415 71 372.50 29Q330-13 270-13Q211-13 168 29Q125 71 125 133Q125 193 168 235Q211 277 270 277M270 846Q330 846 372.50 804Q415 762 415 702Q415 640 372.50 598Q330 556 270 556Q211 556 168 598Q125 640 125 702Q125 762 168 804Q211 846 270 846Z"  horiz-adv-x="541" vert-adv-y="2048"  />

      
      <glyph glyph-name="uni3b" unicode="&#x3b;" d="M511 278L280-202L83-202L211 278L511 278M286 846Q345 846 388 804Q431 762 431 702Q431 640 388 598Q345 556 286 556Q226 556 183.50 598Q141 640 141 702Q141 762 183.50 804Q226 846 286 846Z"  horiz-adv-x="635" vert-adv-y="2048"  />

      
      <glyph glyph-name="uni037E" unicode="&#x037E;" d="M511 278L280-202L83-202L211 278L511 278M286 846Q345 846 388 804Q431 762 431 702Q431 640 388 598Q345 556 286 556Q226 556 183.50 598Q141 640 141 702Q141 762 183.50 804Q226 846 286 846Z"  horiz-adv-x="635" vert-adv-y="2048"  />

      
      <glyph glyph-name="uni3c" unicode="&#x3c;" d="M1403 107L100 582L1403 1056L1403 835L706 582L1403 328L1403 107Z"  horiz-adv-x="1504" vert-adv-y="2048"  />

      
      <glyph glyph-name="uni3d" unicode="&#x3d;" d="M125 860L987 860L987 652L125 652L125 860M125 564L987 564L987 357L125 357L125 564Z"  horiz-adv-x="1112" vert-adv-y="2048"  />

      
      <glyph glyph-name="uni3e" unicode="&#x3e;" d="M100 328L797 582L100 835L100 1056L1403 582L100 107L100 328Z"  horiz-adv-x="1504" vert-adv-y="2048"  />

      
      <glyph glyph-name="uni3f" unicode="&#x3f;" d="M127 1186Q127 1260 163 1332Q231 1472 377 1523Q441 1545 503 1545Q585 1545 664 1507Q804 1440 855 1295Q876 1232 876 1170Q876 1087 838 1008Q775 878 634 769Q538 684 488 579Q458 517 457 456L251 456Q252 564 303 668Q383 835 541 954Q617 1029 651 1098Q668 1135 668 1171Q668 1198 659 1226Q635 1292 573 1322Q537 1339 501 1339Q474 1339 445 1329Q379 1306 349 1244Q340 1225 336 1187L127 1119L127 1186M518 133Q518 71 475 29Q432-13 373-13Q313-13 270.50 29Q228 71 228 133Q228 193 270.50 235Q313 277 373 277Q432 277 475 235Q518 193 518 133Z"  horiz-adv-x="1028" vert-adv-y="2048"  />

      
      <glyph glyph-name="uni40" unicode="&#x40;" d="M1013 515L1013 623Q1003 668 963 708Q905 766 824 766Q743 766 686 708Q629 650 629 569Q629 487 686 430Q743 373 824 373Q906 373 963 430Q1003 470 1013 515M1011 294Q958 212 822 212Q658 212 541.50 309Q425 406 425 570Q425 733 541.50 835Q658 937 822 937Q968 937 1011 863L1011 915L1210 915L1208 417L1208 414Q1208 362 1224 362Q1238 362 1264 398Q1321 479 1321 646Q1321 813 1194.50 939Q1068 1065 822 1065Q577 1065 451.50 939Q326 813 326 587Q326 361 471.50 215.50Q617 70 822 70Q963 70 1064 133L1206-16Q1013-129 822-129Q535-129 330 75.50Q125 280 125 568Q125 855 330 1059.50Q535 1264 822 1264Q1111 1264 1314.50 1059Q1518 854 1518 643Q1518 432 1409 301Q1319 194 1210 194Q1186 194 1161 200Q1022 229 1011 294Z"  horiz-adv-x="1643" vert-adv-y="2048"  />

      
      <glyph glyph-name="uni41" unicode="&#x41;" d="M825 773L688 1148L552 773L825 773M744 1600L1326 0L1106 0L900 566L476 566L271 0L50 0L632 1600L744 1600Z"  horiz-adv-x="1376" vert-adv-y="2048"  />

      
      <glyph glyph-name="uni42" unicode="&#x42;" d="M474 1600Q613 1600 712 1501.50Q811 1403 811 1264Q811 1121 667 1087Q771 1072 903.50 939Q1036 806 1036 571Q1036 336 871 165Q716 4 560 2L560 0L150 0L150 1600L474 1600M357 927L357 208L560 208L560 211Q624 215 719 314Q824 422 824 571Q824 718 719.50 822.50Q615 927 468 927L357 927M357 1393L357 1140L492 1140Q538 1144 571 1175Q607 1208 607 1264Q607 1320 569.50 1356.50Q532 1393 474 1393L357 1393Z"  horiz-adv-x="1126" vert-adv-y="2048"  />

      
      <glyph glyph-name="uni43" unicode="&#x43;" d="M1388 381L1543 242Q1259-17 942-17Q603-17 364 222Q125 461 125 800Q125 1138 364 1378Q603 1618 942 1618Q1259 1618 1543 1359L1388 1218Q1174 1408 942 1408Q691 1408 512.50 1230Q334 1052 334 800Q334 547 512.50 369Q691 191 942 191Q1174 191 1388 381Z"  horiz-adv-x="1642" vert-adv-y="2048"  />

      
      <glyph glyph-name="uni44" unicode="&#x44;" d="M357 1389L357 210Q604 210 762 369Q940 547 940 800Q940 1052 762 1231Q604 1389 357 1389M302 1600Q692 1598 910 1379Q1149 1138 1149 800Q1149 461 910 221Q692 2 302 0L150 0L150 1600L302 1600Z"  horiz-adv-x="1250" vert-adv-y="2048"  />

      
      <glyph glyph-name="uni45" unicode="&#x45;" d="M1012 1600L1012 1393L357 1393L357 904L1012 904L1012 697L357 697L357 208L1012 208L1012 0L150 0L150 1600L1012 1600Z"  horiz-adv-x="1137" vert-adv-y="2048"  />

      
      <glyph glyph-name="uni46" unicode="&#x46;" d="M920 1600L920 1393L357 1393L357 904L920 904L920 697L357 697L357 0L150 0L150 1600L920 1600Z"  horiz-adv-x="1045" vert-adv-y="2048"  />

      
      <glyph glyph-name="uni47" unicode="&#x47;" d="M1507 219Q1260-17 942-17Q603-17 364 222Q125 461 125 800Q125 1138 364 1378Q603 1618 942 1618Q1259 1618 1543 1359L1388 1218Q1174 1408 942 1408Q691 1408 512.50 1230Q334 1052 334 800Q334 547 512.50 369Q691 191 942 191Q1158 191 1300 305L1300 788L1507 788L1507 219Z"  horiz-adv-x="1668" vert-adv-y="2048"  />

      
      <glyph glyph-name="uni48" unicode="&#x48;" d="M357 662L357 0L150 0L150 1600L357 1600L357 869L851 869L851 1600L1058 1600L1058 0L851 0L851 662L357 662Z"  horiz-adv-x="1208" vert-adv-y="2048"  />

      
      <glyph glyph-name="uni49" unicode="&#x49;" d="M377 1600L377 0L170 0L170 1600L377 1600Z"  horiz-adv-x="548" vert-adv-y="2048"  />

      
      <glyph glyph-name="uni4a" unicode="&#x4a;" d="M781 343Q781 177 690 85Q593-13 455-13Q318-13 221.50 84.50Q125 182 125 344L289 408Q317 256 360 221Q392 194 446 194L450 194Q507 195 544 231Q574 262 574 352L574 1600L781 1600L781 343Z"  horiz-adv-x="937" vert-adv-y="2048"  />

      
      <glyph glyph-name="uni4b" unicode="&#x4b;" d="M357 755L357 0L150 0L150 1600L357 1600L357 1096L735 1600L997 1600L506 942L1117 0L866 0L371 772L357 755Z"  horiz-adv-x="1206" vert-adv-y="2048"  />

      
      <glyph glyph-name="uni4c" unicode="&#x4c;" d="M150 0L150 1600L357 1600L357 208L929 208L929 0L150 0Z"  horiz-adv-x="1019" vert-adv-y="2048"  />

      
      <glyph glyph-name="uni4d" unicode="&#x4d;" d="M388 1600L907 703L1424 1600L1613 1600L1613 0L1406 0L1406 1156L907 292L406 1156L406 0L199 0L199 1600L388 1600Z"  horiz-adv-x="1812" vert-adv-y="2048"  />

      
      <glyph glyph-name="uni4e" unicode="&#x4e;" d="M150 1600L339 1600L999 458L999 1600L1207 1600L1207 0L1026 0L357 1156L357 0L150 0L150 1600Z"  horiz-adv-x="1357" vert-adv-y="2048"  />

      
      <glyph glyph-name="uni4f" unicode="&#x4f;" d="M944 1621Q1283 1621 1523 1381Q1763 1141 1763 802Q1763 463 1523 223Q1283-17 944-17Q605-17 365 223Q125 463 125 802Q125 1141 365 1381Q605 1621 944 1621M944 1412Q691 1412 512.50 1233.50Q334 1055 334 802Q334 549 513 370Q692 191 944 191Q1197 191 1375.50 370Q1554 549 1554 802Q1554 1055 1375.50 1233.50Q1197 1412 944 1412Z"  horiz-adv-x="1889" vert-adv-y="2048"  />

      
      <glyph glyph-name="uni50" unicode="&#x50;" d="M357 512L357 0L150 0L150 1600L604 1600Q797 1574 930 1441Q1089 1281 1089 1057Q1089 831 930 671.50Q771 512 546 512L357 512M357 1392L357 720L546 720Q684 720 782.50 818.50Q881 917 881 1057Q881 1196 782.50 1294Q684 1392 546 1392L357 1392Z"  horiz-adv-x="1145" vert-adv-y="2048"  />

      
      <glyph glyph-name="uni51" unicode="&#x51;" d="M944 1412Q691 1412 512.50 1233.50Q334 1055 334 802Q334 549 513 370Q692 191 944 191Q1197 191 1375.50 370Q1554 549 1554 802Q1554 1055 1375.50 1233.50Q1197 1412 944 1412M1286 55Q1309 41 1334 23Q1404-14 1429-22Q1440-25 1450-25Q1467-25 1484-15Q1510 0 1518 29Q1521 38 1525 103L1734 103Q1727 5 1718-27Q1686-138 1585-194Q1521-231 1451-231Q1412-231 1373-220Q1309-203 1202-134Q1116-89 1083-79Q1064-74 1047-74Q1017-74 989-90Q943-116 929-168Q927-173 922-234L713-234Q721-139 729-110Q746-49 781-2Q545 43 365 223Q125 463 125 802Q125 1141 365 1381Q605 1621 944 1621Q1283 1621 1523 1381Q1763 1141 1763 802Q1763 463 1523 223Q1415 115 1286 55Z"  horiz-adv-x="1889" vert-adv-y="2048"  />

      
      <glyph glyph-name="uni52" unicode="&#x52;" d="M357 1392L357 720L546 720Q684 720 782.50 818.50Q881 917 881 1057Q881 1196 782.50 1294Q684 1392 546 1392L357 1392M546 512L357 512L357 0L150 0L150 1600L604 1600Q797 1574 930 1441Q1089 1281 1089 1057Q1089 831 930 671Q820 561 762 547L1117 0L866 0L546 512Z"  horiz-adv-x="1171" vert-adv-y="2048"  />

      
      <glyph glyph-name="uni53" unicode="&#x53;" d="M557 821Q387 878 281.50 983.50Q176 1089 176 1245Q176 1398 285.50 1508Q395 1618 551 1618Q705 1618 815 1509Q877 1449 919 1318L731 1244Q697 1336 669 1364Q620 1412 551 1412Q481 1412 432 1363.50Q383 1315 383 1245Q383 1175 432 1126Q487 1072 584 1027Q772 966 903 835Q1050 690 1050 483Q1050 276 903.50 129.50Q757-17 551-17Q344-17 198 130Q81 247 50 453L251 526Q270 349 344 275Q430 189 551 189Q672 189 758 275Q844 361 844 483Q844 604 758 690Q676 772 557 821Z"  horiz-adv-x="1101" vert-adv-y="2048"  />

      
      <glyph glyph-name="uni54" unicode="&#x54;" d="M631 1393L631 0L423 0L423 1393L50 1393L50 1600L1004 1600L1004 1393L631 1393Z"  horiz-adv-x="1054" vert-adv-y="2048"  />

      
      <glyph glyph-name="uni55" unicode="&#x55;" d="M1030 1600L1238 1600L1238 473Q1211 280 1079 147Q919-13 694-13Q469-13 309.50 146.50Q150 306 150 531L150 1600L358 1600L358 531Q358 393 456.50 294.50Q555 196 694 196Q834 196 932 294Q1030 392 1030 531L1030 1600Z"  horiz-adv-x="1388" vert-adv-y="2048"  />

      
      <glyph glyph-name="uni56" unicode="&#x56;" d="M631 0L50 1600L270 1600L687 453L1105 1600L1326 1600L743 0L631 0Z"  horiz-adv-x="1376" vert-adv-y="2048"  />

      
      <glyph glyph-name="uni57" unicode="&#x57;" d="M739 299L739 1600L946 1600L946 299Q956 282 980 257Q1045 195 1134 195Q1223 195 1288 258.50Q1353 322 1353 411L1353 1600L1561 1600L1561 403Q1557 234 1436 113Q1311-13 1134-13Q958-13 843 111Q727-13 551-13Q374-13 250 113Q128 233 125 403L125 1600L332 1600L332 411Q332 322 397 258.50Q462 195 551 195Q641 195 705 257Q730 282 739 299Z"  horiz-adv-x="1686" vert-adv-y="2048"  />

      
      <glyph glyph-name="uni58" unicode="&#x58;" d="M50 0L553 873L134 1600L372 1600L672 1079L974 1600L1212 1600L791 873L1296 0L1058 0L672 667L288 0L50 0Z"  horiz-adv-x="1347" vert-adv-y="2048"  />

      
      <glyph glyph-name="uni59" unicode="&#x59;" d="M603 642L50 1600L288 1600L706 876L1125 1600L1364 1600L810 642L810 0L603 0L603 642Z"  horiz-adv-x="1414" vert-adv-y="2048"  />

      
      <glyph glyph-name="uni5a" unicode="&#x5a;" d="M954 1393L196 1393L196 1600L1312 1600L507 208L1267 208L1267 0L150 0L954 1393Z"  horiz-adv-x="1463" vert-adv-y="2048"  />

      
      <glyph glyph-name="uni5b" unicode="&#x5b;" d="M332-138L534-138L534-345L125-345L125 1596L534 1596L534 1389L332 1389L332-138Z"  horiz-adv-x="659" vert-adv-y="2048"  />

      
      <glyph glyph-name="uni5c" unicode="&#x5c;" d="M903 0L673 0L-50 1596L181 1596L903 0Z"  horiz-adv-x="853" vert-adv-y="2048"  />

      
      <glyph glyph-name="uni5d" unicode="&#x5d;" d="M327 1389L125 1389L125 1596L534 1596L534-345L125-345L125-138L327-138L327 1389Z"  horiz-adv-x="659" vert-adv-y="2048"  />

      
      <glyph glyph-name="uni5e" unicode="&#x5e;" d="M623 1596L978 981L739 981L540 1326L340 981L100 981L456 1596L623 1596Z"  horiz-adv-x="1078" vert-adv-y="2048"  />

      
      <glyph glyph-name="uni5f" unicode="&#x5f;" d="M25 96L1069 96L1069-110L25-110L25 96Z"  horiz-adv-x="1094" vert-adv-y="2048"  />

      
      <glyph glyph-name="uni60" unicode="&#x60;" d="M569 1128L372 1128L100 1407L352 1407L569 1128Z"  horiz-adv-x="669" vert-adv-y="2048"  />

      
      <glyph glyph-name="uni61" unicode="&#x61;" d="M1042 466L1042 618Q1024 715 946 794Q841 898 694 898Q546 898 441.50 794Q337 690 337 542Q337 395 441.50 290.50Q546 186 694 186Q841 186 946 290Q1024 369 1042 466M1042 957L1042 1029L1250 1029L1250-1L1042-1L1042 128Q892-27 694-27Q458-27 291.50 139.50Q125 306 125 542Q125 778 291.50 944.50Q458 1111 694 1111Q892 1111 1042 957Z"  horiz-adv-x="1401" vert-adv-y="2048"  />

      
      <glyph glyph-name="uni62" unicode="&#x62;" d="M357 623L357 462Q376 368 453 291Q558 187 706 187Q854 187 958.50 291Q1063 395 1063 543Q1063 690 958.50 795Q854 900 706 900Q558 900 453 795Q376 718 357 623M357 128L357 0L150 0L150 1600L357 1600L357 958Q507 1113 706 1113Q942 1113 1108.50 946Q1275 779 1275 543Q1275 307 1108.50 140Q942-27 706-27Q507-27 357 128Z"  horiz-adv-x="1400" vert-adv-y="2048"  />

      
      <glyph glyph-name="uni63" unicode="&#x63;" d="M965 353L1172 279Q1096 174 1062 140Q895-27 659-27Q424-27 257 140Q90 307 90 543Q90 779 257 946Q424 1113 659 1113Q895 1113 1062 946Q1096 912 1172 809L965 733Q925 782 911 796Q807 900 659 900Q512 900 407.50 795.50Q303 691 303 543Q303 396 407.50 291.50Q512 187 659 187Q807 187 912 291Q925 305 965 353Z"  horiz-adv-x="1262" vert-adv-y="2048"  />

      
      <glyph glyph-name="uni64" unicode="&#x64;" d="M1043 466L1043 619Q1025 716 946 795Q842 900 694 900Q546 900 441.50 795Q337 690 337 543Q337 395 441.50 291Q546 187 694 187Q842 187 946 291Q1025 370 1043 466M1043 958L1043 1600L1251 1600L1251 0L1043 0L1043 128Q893-27 694-27Q458-27 291.50 140Q125 307 125 543Q125 779 291.50 946Q458 1113 694 1113Q893 1113 1043 958Z"  horiz-adv-x="1401" vert-adv-y="2048"  />

      
      <glyph glyph-name="uni65" unicode="&#x65;" d="M470 233Q522 187 659 187Q807 187 912 291Q925 305 965 353L1172 279Q1096 174 1062 140Q895-27 659-27Q424-27 257 140Q90 307 90 543Q90 779 257 946Q424 1113 659 1113Q861 1113 1013 991Q1038 970 1062 946Q1072 936 1119 883L1015 778L470 233M816 873Q781 900 659 900Q512 900 407.50 795.50Q303 691 303 543Q303 422 330 386L816 873Z"  horiz-adv-x="1262" vert-adv-y="2048"  />

      
      <glyph glyph-name="uni66" unicode="&#x66;" d="M390 823L390-1L182-1L182 823L90 823L90 1030L182 1030L182 1215Q189 1343 280 1435Q374 1523 498 1523Q560 1523 686 1480L617 1284Q529 1321 506 1321Q464 1321 425 1286Q392 1253 390 1207L390 1030L575 1030L575 823L390 823Z"  horiz-adv-x="626" vert-adv-y="2048"  />

      
      <glyph glyph-name="uni67" unicode="&#x67;" d="M1042 623Q1023 718 946 795Q842 900 694 900Q546 900 441.50 795Q337 690 337 543Q337 395 441.50 290.50Q546 186 694 186Q842 186 946 290Q1023 367 1042 460L1042 623M1043 958L1043 1029L1251 1029L1251 264Q1251-36 1088-199Q921-346 685-346Q449-346 282-199Q248-165 173-61L379 13Q419-35 433-49Q538-153 685-153Q932-153 1027 171Q930-17 694-17Q458-17 291.50 145Q125 307 125 543Q125 779 291.50 945.50Q458 1112 694 1112Q893 1112 1043 958Z"  horiz-adv-x="1405" vert-adv-y="2048"  />

      
      <glyph glyph-name="uni68" unicode="&#x68;" d="M150 1600L358 1600L358 918Q445 1085 610 1085Q775 1085 873.50 966.50Q972 848 975 669L975 0L768 0L768 661Q768 750 717.50 813.50Q667 877 558 877Q429 877 358 739L358 0L150 0L150 1600Z"  horiz-adv-x="1125" vert-adv-y="2048"  />

      
      <glyph glyph-name="uni69" unicode="&#x69;" d="M374 1029L374 0L167 0L167 1029L374 1029M270 1452Q330 1452 373 1410Q416 1368 416 1307Q416 1246 373 1204Q330 1162 270 1162Q211 1162 168 1204Q125 1246 125 1307Q125 1368 168 1410Q211 1452 270 1452Z"  horiz-adv-x="541" vert-adv-y="2048"  />

      
      <glyph glyph-name="uni6a" unicode="&#x6a;" d="M49-10Q161 2 161 60L161 1029L368 1029L368 62Q368-191 49-216L49-10M264 1452Q324 1452 367 1410Q410 1368 410 1307Q410 1246 367 1204Q324 1162 264 1162Q205 1162 162 1204Q119 1246 119 1307Q119 1368 162 1410Q205 1452 264 1452Z"  horiz-adv-x="561" vert-adv-y="2048"  />

      
      <glyph glyph-name="uni6b" unicode="&#x6b;" d="M785 1029L506 685L894 0L647 0L367 513L358 502L358 0L150 0L150 1415L358 1415L358 833L518 1029L785 1029Z"  horiz-adv-x="944" vert-adv-y="2048"  />

      
      <glyph glyph-name="uni6c" unicode="&#x6c;" d="M358 1601L358 0L150 0L150 1601L358 1601Z"  horiz-adv-x="508" vert-adv-y="2048"  />

      
      <glyph glyph-name="uni6d" unicode="&#x6d;" d="M150 1029L357 1029L357 933Q417 1084 588 1084Q758 1084 779 912Q828 1084 1049 1084Q1267 1084 1267 819L1267 0L1059 0L1059 724Q1059 876 936 876Q885 876 848 840Q811 804 811 598L811 0L604 0L605 724Q605 876 481 876Q430 876 393 840Q361 809 357 676L357 0L150 0L150 1029Z"  horiz-adv-x="1418" vert-adv-y="2048"  />

      
      <glyph glyph-name="uni6e" unicode="&#x6e;" d="M358 753L358 0L150 0L150 1029L358 1029L358 909Q423 1085 619 1085Q786 1085 884.50 966.50Q983 848 986 669L986 0L779 0L779 661Q779 750 714 813.50Q649 877 559 877Q470 877 405 815Q369 778 358 753Z"  horiz-adv-x="1139" vert-adv-y="2048"  />

      
      <glyph glyph-name="uni6f" unicode="&#x6f;" d="M659 1113Q895 1113 1061.50 946Q1228 779 1228 543Q1228 307 1061.50 140Q895-27 659-27Q424-27 257 140Q90 307 90 543Q90 779 257 946Q424 1113 659 1113M659 900Q511 900 406.50 795Q302 690 302 543Q302 395 406.50 291Q511 187 659 187Q807 187 911.50 291Q1016 395 1016 543Q1016 690 911.50 795Q807 900 659 900Z"  horiz-adv-x="1318" vert-adv-y="2048"  />

      
      <glyph glyph-name="uni70" unicode="&#x70;" d="M357 623L357 462Q376 367 454 290Q558 186 706 186Q854 186 958.50 290.50Q1063 395 1063 543Q1063 690 958.50 795Q854 900 706 900Q558 900 454 795Q376 718 357 623M357 128L357-346L150-346L150 1029L357 1029L357 936Q507 1112 706 1112Q942 1112 1108.50 945.50Q1275 779 1275 543Q1275 307 1108.50 140Q942-27 706-27Q507-27 357 128Z"  horiz-adv-x="1375" vert-adv-y="2048"  />

      
      <glyph glyph-name="uni71" unicode="&#x71;" d="M1018 466L1018 619Q1000 716 921 795Q817 900 669 900Q521 900 416.50 795Q312 690 312 543Q312 395 416.50 290.50Q521 186 669 186Q817 186 921 290Q1000 369 1018 466M1018 958L1018 1029L1226 1029L1226-346L1018-346L1018 128Q868-27 669-27Q433-27 266.50 140Q100 307 100 543Q100 779 266.50 945.50Q433 1112 669 1112Q868 1112 1018 958Z"  horiz-adv-x="1376" vert-adv-y="2048"  />

      
      <glyph glyph-name="uni72" unicode="&#x72;" d="M357 890Q473 1047 642 1055L642 840Q529 834 462 767Q361 667 357 529L357 0L150 0L150 1029L357 1029L357 890Z"  horiz-adv-x="693" vert-adv-y="2048"  />

      
      <glyph glyph-name="uni73" unicode="&#x73;" d="M330 286Q339 240 358 221Q395 185 446 185Q497 185 533.50 221Q570 257 570 310Q570 361 534 397Q509 422 427 474Q315 535 268 582Q186 664 186 779Q186 895 268 977.50Q350 1060 466 1060Q582 1060 659 982Q714 927 729 859L528 801Q521 826 514 834Q496 852 466 852Q436 852 414.50 830.50Q393 809 393 779Q393 749 414 728Q433 710 500 667Q624 599 680 543Q777 445 777 310Q777 172 680.50 74.50Q584-23 446-23Q309-23 212 75Q145 142 124 242L330 286Z"  horiz-adv-x="882" vert-adv-y="2048"  />

      
      <glyph glyph-name="uni74" unicode="&#x74;" d="M275 1029L275 1415L482 1415L482 1029L667 1029L667 822L482 822L482 0L275 0L275 822L90 822L90 1029L275 1029Z"  horiz-adv-x="758" vert-adv-y="2048"  />

      
      <glyph glyph-name="uni75" unicode="&#x75;" d="M586-14Q391-14 272 105Q153 224 150 403L150 1029L358 1029L358 411Q358 322 423 258Q488 194 585 194Q674 194 739.50 257.50Q805 321 805 411L805 1029L1012 1029L1012 403Q1009 224 891 105Q772-14 586-14Z"  horiz-adv-x="1162" vert-adv-y="2048"  />

      
      <glyph glyph-name="uni76" unicode="&#x76;" d="M541 0L50 1029L284 1029L593 361L903 1029L1137 1029L645 0L541 0Z"  horiz-adv-x="1188" vert-adv-y="2048"  />

      
      <glyph glyph-name="uni77" unicode="&#x77;" d="M604 305L604 1029L811 1029L811 322Q811 267 848 230.50Q885 194 936 194Q1059 194 1059 347L1059 1029L1267 1029L1267 308Q1262 176 1170 84Q1073-14 936-14Q798-14 709 82Q618-14 481-14Q343-14 246 84Q154 176 150 308L150 1029L357 1029L357 347Q357 194 481 194Q532 194 569 230Q600 261 604 305Z"  horiz-adv-x="1418" vert-adv-y="2048"  />

      
      <glyph glyph-name="uni78" unicode="&#x78;" d="M906 1029L634 559L956 0L717 0L516 346L316 0L75 0L398 559L127 1029L366 1029L516 772L665 1029L906 1029Z"  horiz-adv-x="1031" vert-adv-y="2048"  />

      
      <glyph glyph-name="uni79" unicode="&#x79;" d="M403-346L184-346L458 229L75 1029L308 1029L569 466L830 1029L1062 1029L403-346Z"  horiz-adv-x="1139" vert-adv-y="2048"  />

      
      <glyph glyph-name="uni7a" unicode="&#x7a;" d="M618 822L195 822L195 1029L975 1029L506 208L965 208L965 0L150 0L618 822Z"  horiz-adv-x="1125" vert-adv-y="2048"  />

      
      <glyph glyph-name="uni7b" unicode="&#x7b;" d="M125 749L288 749Q371 802 398 896Q413 954 413 1020Q413 1056 408 1093Q395 1163 395 1227Q395 1297 411 1359Q446 1487 563 1553Q637 1596 719 1596Q741 1596 816 1584L816 1389Q732 1403 721 1403Q689 1403 658 1386Q612 1360 598 1308Q587 1265 587 1209Q587 1184 589 1160Q604 1087 604 1013Q604 927 583 845Q535 675 466 623Q535 576 583 406Q604 324 604 238Q604 164 589 91Q587 67 587 42Q587-14 598-57Q612-108 658-134Q691-152 723-152Q734-152 816-142L816-333Q741-345 719-345Q637-345 563-302Q446-236 411-107Q395-45 395 25Q395 89 408 158Q413 195 413 231Q413 297 398 355Q371 449 288 502L125 502L125 749Z"  horiz-adv-x="941" vert-adv-y="2048"  />

      
      <glyph glyph-name="uni7c" unicode="&#x7c;" d="M357 1596L357-345L150-345L150 1596L357 1596Z"  horiz-adv-x="507" vert-adv-y="2048"  />

      
      <glyph glyph-name="uni7d" unicode="&#x7d;" d="M816 502L653 502Q569 449 543 355Q528 297 528 231Q528 195 532 158Q546 89 546 25Q546-45 529-107Q495-236 378-302Q304-345 222-345Q200-345 125-333L125-142Q206-152 217-152Q250-152 283-134Q329-108 342-57Q354-14 354 42Q354 67 352 91Q337 164 337 238Q337 324 358 406Q405 576 475 623Q405 675 358 845Q337 927 337 1013Q337 1087 352 1160Q354 1184 354 1209Q354 1265 342 1308Q329 1360 283 1386Q252 1403 220 1403Q209 1403 125 1389L125 1584Q200 1596 222 1596Q304 1596 378 1553Q495 1487 529 1359Q546 1297 546 1227Q546 1163 533 1093Q528 1056 528 1020Q528 954 543 896Q569 802 653 749L816 749L816 502Z"  horiz-adv-x="941" vert-adv-y="2048"  />

      
      <glyph glyph-name="uni7e" unicode="&#x7e;" d="M692 908Q851 816 912 816L921 816Q962 829 979 872Q988 895 988 992L1201 959Q1191 848 1170 794Q1117 665 989 622Q956 612 918 612Q805 612 631 711Q471 803 410 803L403 803Q362 790 344 748Q335 722 332 627L125 660Q130 770 152 825Q205 954 335 997Q367 1007 405 1007Q519 1007 692 908Z"  horiz-adv-x="1326" vert-adv-y="2048"  />

      
      <glyph glyph-name="unia1" unicode="&#xa1;" d="M270 739Q210 739 167.50 781Q125 823 125 883Q125 945 167.50 987Q210 1029 270 1029Q329 1029 372 987Q415 945 415 883Q415 823 372 781Q329 739 270 739M168-584L168 561L375 561L375-584L168-584Z"  horiz-adv-x="541" vert-adv-y="2048"  />

      
      <glyph glyph-name="unia2" unicode="&#xa2;" d="M639 773Q682 774 759 851Q769 861 809 909L1008 836Q932 734 905 706Q768 569 639 567L639 425L432 425L432 583Q343 599 238 705Q99 843 99 1039Q99 1234 238 1373Q343 1478 432 1495L432 1653L639 1653L639 1511Q768 1509 905 1372Q932 1344 1009 1244L810 1169Q769 1218 759 1229Q683 1304 639 1305L639 773M433 1278Q305 1190 305 1039Q305 899 432 797L433 1278Z"  horiz-adv-x="1110" vert-adv-y="2048"  />

      
      <glyph glyph-name="unia3" unicode="&#xa3;" d="M575 509Q575 282 453 157Q534 209 631 209Q657 209 685 205Q813 187 887 187Q953 187 1075 218L1114 14Q975-20 887-20Q798-20 706 1Q622 19 560 19Q508 19 473 7Q381-26 251-92L100 87Q256 225 282 257Q367 358 369 511L150 511L150 717L323 717Q322 720 282 799Q173 975 159 1139Q157 1159 157 1180Q157 1330 256 1449Q367 1581 544 1598Q564 1599 583 1599Q733 1599 853 1500Q986 1386 1002 1213Q1006 1189 1006 1166Q1006 1095 958 984L765 1049Q796 1138 796 1175Q796 1186 795 1196Q787 1283 719 1340Q659 1390 584 1390Q573 1390 563 1389Q475 1382 418 1314Q368 1254 368 1180Q368 1168 369 1157Q377 1065 433 946Q516 814 540 717L734 717L734 511L575 509Z"  horiz-adv-x="1214" vert-adv-y="2048"  />

      
      <glyph glyph-name="unia4" unicode="&#xa4;" d="M378 1491Q452 1551 607 1551Q763 1551 836 1491L968 1623L1114 1476L982 1344Q1043 1271 1043 1115Q1043 960 982 887L1114 755L968 608L836 740Q763 680 607 680Q452 680 378 740L247 608L100 755L232 887Q172 960 172 1115Q172 1271 232 1344L100 1476L247 1623L378 1491M744 1299Q685 1344 607 1344Q529 1344 471 1299Q457 1289 446 1278Q434 1266 424 1252Q378 1193 378 1115Q378 1037 424 979Q433 966 446 954Q458 941 471 932Q529 887 607 887Q685 887 744 932Q757 942 769 954Q781 965 790 979Q836 1037 836 1115Q836 1193 790 1252Q780 1266 769 1278Q758 1288 744 1299Z"  horiz-adv-x="1214" vert-adv-y="2048"  />

      
      <glyph glyph-name="unia5" unicode="&#xa5;" d="M535 760L50 1600L288 1600L706 876L1125 1600L1364 1600L878 760L1138 760L1138 552L810 552L810 464L1138 464L1138 257L810 257L810 0L603 0L603 257L276 257L276 464L603 464L603 552L276 552L276 760L535 760Z"  horiz-adv-x="1414" vert-adv-y="2048"  />

      
      <glyph glyph-name="unia6" unicode="&#xa6;" d="M357 1596L357 691L150 691L150 1596L357 1596M357 560L357-345L150-345L150 560L357 560Z"  horiz-adv-x="507" vert-adv-y="2048"  />

      
      <glyph glyph-name="unia7" unicode="&#xa7;" d="M894 497L895 497Q900 497 900 611Q900 732 815 818Q732 900 613 949Q444 1005 343 1107L312 1120L311 1120Q305 1120 305 1005Q305 884 391 799Q473 716 592 668Q761 611 863 510L894 497M233 1371Q233 1524 342.50 1633.50Q452 1743 607 1743Q762 1743 871 1634Q933 1575 975 1444L787 1370Q753 1462 726 1490Q677 1538 607 1538Q538 1538 489 1489.50Q440 1441 440 1371Q440 1302 489 1253Q544 1199 641 1154Q828 1093 959 962Q1105 817 1105 611Q1105 404 972 245Q972 93 863-17Q754-127 598-127Q444-127 334-18Q272 41 231 172L418 246Q452 154 480 126Q529 78 598 78Q667 78 716 126.50Q765 175 765 245Q765 314 716 363Q662 417 564 462Q377 523 246 654Q100 799 100 1005Q100 1212 233 1371Z"  horiz-adv-x="1205" vert-adv-y="2048"  />

      
      <glyph glyph-name="unia8" unicode="&#xa8;" d="M170 1438Q229 1438 272 1396Q315 1354 315 1294Q315 1233 272 1191Q229 1149 170 1149Q110 1149 67.50 1191Q25 1233 25 1294Q25 1354 67.50 1396Q110 1438 170 1438M546 1438Q605 1438 648 1396Q691 1354 691 1294Q691 1233 648 1191Q605 1149 546 1149Q486 1149 443.50 1191Q401 1233 401 1294Q401 1354 443.50 1396Q486 1438 546 1438Z"  horiz-adv-x="716" vert-adv-y="2048"  />

      
      <glyph glyph-name="unia9" unicode="&#xa9;" d="M893 542L1074 476Q1005 380 983 358Q876 250 724 250Q572 250 465 357.50Q358 465 358 617Q358 768 465 875.50Q572 983 724 983Q876 983 983 876Q1005 854 1074 758L893 691Q856 738 849 745Q798 796 724 796Q650 796 597.50 743.50Q545 691 545 617Q545 543 597.50 490.50Q650 438 724 438Q798 438 850 490Q857 497 893 542M714 1232Q968 1232 1148 1052Q1328 872 1328 617Q1328 362 1148 182Q968 2 714 2Q459 2 279 182Q99 362 99 617Q99 872 279 1052Q459 1232 714 1232M714 1042Q537 1042 412.50 917.50Q288 793 288 617Q288 441 412.50 316Q537 191 714 191Q890 191 1014.50 316Q1139 441 1139 617Q1139 793 1014.50 917.50Q890 1042 714 1042Z"  horiz-adv-x="1433" vert-adv-y="2048"  />

      
      <glyph glyph-name="uniaa" unicode="&#xaa;" d="M730 1213L730 1304Q718 1362 667 1410Q598 1472 501 1472Q403 1472 334 1409.50Q265 1347 265 1259Q265 1170 334 1107.50Q403 1045 501 1045Q598 1045 667 1107Q718 1155 730 1213M730 1508L730 1551L868 1551L868 933L730 933L730 1010Q631 917 501 917Q345 917 235 1017Q125 1117 125 1259Q125 1400 235 1500Q345 1600 501 1600Q631 1600 730 1508M956 1347L1113 1347L1113 640L334 640L334 797L956 797L956 1347Z"  horiz-adv-x="1019" vert-adv-y="2048"  />

      
      <glyph glyph-name="uniab" unicode="&#xab;" d="M100 489L643 1070L643 792L360 489L643 185L643-95L100 489M578 489L1121 1070L1121 792L838 489L1121 185L1121-95L578 489Z"  horiz-adv-x="1222" vert-adv-y="2048"  />

      
      <glyph glyph-name="uniae" unicode="&#xae;" d="M809 831Q813 837 836 859Q932 956 932 1091Q932 1228 836 1324Q829 1331 822 1338Q893 1258 893 1149Q893 1029 809 945Q765 901 765 893Q765 892 768 892L770 892L809 831M562 1261L562 1038L606 1038Q652 1038 685 1070.50Q718 1103 718 1149Q718 1196 685 1228.50Q652 1261 606 1261L562 1261M562 765Q583 763 605 763Q634 763 645 762L581 861L562 861L562 765M387 1338Q379 1331 372 1324Q276 1228 276 1091Q276 956 372 859Q379 852 387 845L387 1338M605 587Q395 587 247.50 735Q100 883 100 1091Q100 1300 247.50 1448Q395 1596 605 1596Q812 1596 960 1448Q1108 1300 1108 1091Q1108 883 960 735Q908 683 816 635Q724 587 605 587Z"  horiz-adv-x="1208" vert-adv-y="2048"  />

      
      <glyph glyph-name="uniaf" unicode="&#xaf;" d="M75 1437L642 1437L642 1230L75 1230L75 1437Z"  horiz-adv-x="717" vert-adv-y="2048"  />

      
      <glyph glyph-name="unib0" unicode="&#xb0;" d="M425 1596Q539 1596 619 1515.50Q699 1435 699 1321Q699 1207 619 1127Q539 1047 425 1047Q311 1047 230.50 1127Q150 1207 150 1321Q150 1435 230.50 1515.50Q311 1596 425 1596M425 1407Q389 1407 364 1382Q339 1357 339 1321Q339 1286 364 1261Q389 1236 425 1236Q460 1236 485 1261Q510 1286 510 1321Q510 1357 485 1382Q460 1407 425 1407Z"  horiz-adv-x="849" vert-adv-y="2048"  />

      
      <glyph glyph-name="unib1" unicode="&#xb1;" d="M452 207L452 503L125 503L125 710L452 710L452 1037L658 1037L658 710L985 710L985 503L658 503L658 207L985 207L985 0L125 0L125 207L452 207Z"  horiz-adv-x="1110" vert-adv-y="2048"  />

      
      <glyph glyph-name="unib2" unicode="&#xb2;" d="M125 578Q125 800 259.50 907Q394 1014 467 1065Q540 1116 592.50 1169Q645 1222 645 1281Q645 1339 600.50 1380Q556 1421 493 1421Q430 1421 385 1380Q347 1345 331 1207L126 1276Q153 1439 237 1517Q343 1616 493 1616Q643 1616 749 1518Q855 1420 855 1281Q855 1144 752 1043Q692 982 533 908Q374 834 370 771L855 771L855 578L125 578Z"  horiz-adv-x="979" vert-adv-y="2048"  />

      
      <glyph glyph-name="unib3" unicode="&#xb3;" d="M452 1122L339 1124L339 1214L457 1215Q499 1230 524 1254.50Q549 1279 549 1357Q549 1385 528.50 1403.50Q508 1422 478 1422Q399 1422 383 1310L193 1380Q233 1499 280 1541Q363 1616 478 1616Q596 1616 678 1539.50Q760 1463 760 1357Q760 1221 624 1191Q721 1170 787.50 1104Q854 1038 854 901Q854 763 748 664.50Q642 566 492 566Q343 566 236 665Q152 743 125 907L331 976Q347 837 385 802Q430 761 492 761Q556 761 600 802Q644 843 644 901Q644 961 598 1032.50Q552 1104 452 1122Z"  horiz-adv-x="979" vert-adv-y="2048"  />

      
      <glyph glyph-name="unib4" unicode="&#xb4;" d="M317 1407L569 1407L297 1128L100 1128L317 1407Z"  horiz-adv-x="669" vert-adv-y="2048"  />

      
      <glyph glyph-name="unib5" unicode="&#xb5;" d="M755 81Q665-6 547-6Q375-6 357 61L357-343L150-343L150 1029L357 1029L357 309Q365 291 393 263Q458 201 547 201Q636 201 701 265Q743 306 755 349L755 1029L960 1029L960 2L755 2L755 81Z"  horiz-adv-x="1110" vert-adv-y="2048"  />

      
      <glyph glyph-name="unib6" unicode="&#xb6;" d="M878 1474L878-325L671-325L671 594L593 594Q369 594 210 753Q51 912 51 1137Q51 1362 210 1521Q342 1653 536 1680L551 1680L551 1681L1197 1681L1197 1474L1156 1474L1156-325L949-325L949 1474L878 1474Z"  horiz-adv-x="1222" vert-adv-y="2048"  />

      
      <glyph glyph-name="unib7" unicode="&#xb7;" d="M223.24 923.44Q274.24 923.44 310.37 887.74Q346.49 852.05 346.49 801.05Q346.49 748.35 310.37 712.65Q274.24 676.95 223.24 676.95Q173.10 676.95 136.55 712.65Q100.00 748.35 100.00 801.05Q100.00 852.05 136.55 887.74Q173.10 923.44 223.24 923.44Z"  horiz-adv-x="708" vert-adv-y="2048"  />

      
      <glyph glyph-name="uni2219" unicode="&#x2219;" d="M223.24 923.44Q274.24 923.44 310.37 887.74Q346.49 852.05 346.49 801.05Q346.49 748.35 310.37 712.65Q274.24 676.95 223.24 676.95Q173.10 676.95 136.55 712.65Q100.00 748.35 100.00 801.05Q100.00 852.05 136.55 887.74Q173.10 923.44 223.24 923.44Z"  horiz-adv-x="708" vert-adv-y="2048"  />

      
      <glyph glyph-name="unib8" unicode="&#xb8;" d="M311 17L288-44Q362-82 383-133Q387-147 390-160Q393-173 393-186Q393-229 362-267Q313-326 218-340Q199-343 174-343Q116-343 25-328L60-202Q117-228 153-228Q159-228 164-227Q195-223 204-192Q207-185 207-177Q207-173 206-169Q200-141 114-113L162 17L311 17Z"  horiz-adv-x="418" vert-adv-y="2048"  />

      
      <glyph glyph-name="unib9" unicode="&#xb9;" d="M713 1596L713 570L505 570L505 1366L368 1366L562 1596L713 1596Z"  horiz-adv-x="1081" vert-adv-y="2048"  />

      
      <glyph glyph-name="uniba" unicode="&#xba;" d="M466 1600Q621 1600 731 1500Q841 1400 841 1258Q841 1116 731 1016Q621 916 466 916Q310 916 200 1016Q90 1116 90 1258Q90 1400 200 1500Q310 1600 466 1600M466 1472Q368 1472 299 1409Q230 1346 230 1258Q230 1169 299 1106.50Q368 1044 466 1044Q563 1044 632 1106.50Q701 1169 701 1258Q701 1346 632 1409Q563 1472 466 1472M956 1347L1113 1347L1113 640L334 640L334 797L956 797L956 1347Z"  horiz-adv-x="931" vert-adv-y="2048"  />

      
      <glyph glyph-name="unibb" unicode="&#xbb;" d="M100-95L100 185L383 489L100 792L100 1070L643 489L100-95M578-95L578 185L861 489L578 792L578 1070L1121 489L578-95Z"  horiz-adv-x="1222" vert-adv-y="2048"  />

      
      <glyph glyph-name="unibf" unicode="&#xbf;" d="M876-170Q876-244 840-316Q772-456 626-507Q562-529 500-529Q418-529 339-491Q199-424 148-279Q127-216 127-154Q127-71 165 8Q228 138 369 247Q465 332 515 437Q545 499 546 560L752 560Q751 452 700 348Q620 181 462 62Q386-13 352-82Q335-119 335-155Q335-182 344-210Q368-276 430-306Q466-323 502-323Q529-323 558-313Q624-290 654-228Q663-209 667-171L876-103L876-170M485 883Q485 945 528 987Q571 1029 630 1029Q690 1029 732.50 987Q775 945 775 883Q775 823 732.50 781Q690 739 630 739Q571 739 528 781Q485 823 485 883Z"  horiz-adv-x="1028" vert-adv-y="2048"  />

      
      <glyph glyph-name="unic0" unicode="&#xc0;" d="M825 773L688 1148L552 773L825 773M744 1600L1326 0L1106 0L900 566L476 566L271 0L50 0L632 1600L744 1600M844 1699L647 1699L375 1978L627 1978L844 1699Z"  horiz-adv-x="1376" vert-adv-y="2048"  />

      
      <glyph glyph-name="unic1" unicode="&#xc1;" d="M825 773L688 1148L552 773L825 773M744 1600L1326 0L1106 0L900 566L476 566L271 0L50 0L632 1600L744 1600M749 1978L1001 1978L729 1699L532 1699L749 1978Z"  horiz-adv-x="1376" vert-adv-y="2048"  />

      
      <glyph glyph-name="unic2" unicode="&#xc2;" d="M825 773L688 1148L552 773L825 773M744 1600L1326 0L1106 0L900 566L476 566L271 0L50 0L632 1600L744 1600M778 1749L686 1831L597 1749L378 1749L611 1987L758 1987L999 1749L778 1749Z"  horiz-adv-x="1376" vert-adv-y="2048"  />

      
      <glyph glyph-name="unic3" unicode="&#xc3;" d="M825 773L688 1148L552 773L825 773M744 1600L1326 0L1106 0L900 566L476 566L271 0L50 0L632 1600L744 1600M713 1946Q713 1946 744 1917Q775 1888 801 1888L801 1887Q831 1887 831 1926Q831 1952 818 1995L1004 1995Q966 1775 857 1743Q829 1735 801 1735Q727 1735 667.50 1792Q608 1849 580 1849L576 1849Q546 1847 546 1810Q546 1785 560 1744L373 1744Q412 1964 522 1996Q550 2004 578 2004Q651 2004 713 1946Z"  horiz-adv-x="1376" vert-adv-y="2048"  />

      
      <glyph glyph-name="unic4" unicode="&#xc4;" d="M825 773L688 1148L552 773L825 773M744 1600L1326 0L1106 0L900 566L476 566L271 0L50 0L632 1600L744 1600M500 2009Q559 2009 602 1967Q645 1925 645 1865Q645 1804 602 1762Q559 1720 500 1720Q440 1720 397.50 1762Q355 1804 355 1865Q355 1925 397.50 1967Q440 2009 500 2009M876 2009Q935 2009 978 1967Q1021 1925 1021 1865Q1021 1804 978 1762Q935 1720 876 1720Q816 1720 773.50 1762Q731 1804 731 1865Q731 1925 773.50 1967Q816 2009 876 2009Z"  horiz-adv-x="1376" vert-adv-y="2048"  />

      
      <glyph glyph-name="unic5" unicode="&#xc5;" d="M825 773L688 1148L552 773L825 773M691 1738Q713 1738 729 1753.50Q745 1769 745 1792Q745 1820 729 1835.50Q713 1851 691 1851Q663 1851 647.50 1835.50Q632 1820 632 1792Q632 1769 647.50 1753.50Q663 1738 691 1738M747 1592L1326 0L1106 0L900 566L476 566L271 0L50 0L629 1592Q579 1606 540 1646Q478 1708 478 1794Q478 1881 539.50 1943Q601 2005 689 2005Q776 2005 837.50 1943Q899 1881 899 1794Q899 1708 838 1646Q798 1606 747 1592Z"  horiz-adv-x="1376" vert-adv-y="2048"  />

      
      <glyph glyph-name="unic6" unicode="&#xc6;" d="M1591 1600L1591 1393L936 1393L936 904L1591 904L1591 697L936 697L936 208L1591 208L1591 0L729 0L729 566L535 566L293 0L40 0L729 1548L729 1600L1591 1600M729 1028L619 773L729 773L729 1028Z"  horiz-adv-x="1715" vert-adv-y="2048"  />

      
      <glyph glyph-name="unic7" unicode="&#xc7;" d="M780-2Q544 42 364 222Q125 461 125 800Q125 1138 364 1378Q603 1618 942 1618Q1259 1618 1543 1359L1388 1218Q1174 1408 942 1408Q691 1408 512.50 1230Q334 1052 334 800Q334 547 512.50 369Q691 191 942 191Q1174 191 1388 381L1543 242Q1259-17 942-17L923-17L913-44Q987-82 1008-133Q1012-147 1015-160Q1018-173 1018-186Q1018-229 987-267Q938-326 843-340Q824-343 799-343Q741-343 650-328L685-202Q742-228 778-228Q784-228 789-227Q820-223 829-192Q832-185 832-177Q832-173 831-169Q825-141 739-113L780-2Z"  horiz-adv-x="1642" vert-adv-y="2048"  />

      
      <glyph glyph-name="unic8" unicode="&#xc8;" d="M1012 1600L1012 1393L357 1393L357 904L1012 904L1012 697L357 697L357 208L1012 208L1012 0L150 0L150 1600L1012 1600M737 1699L540 1699L268 1978L520 1978L737 1699Z"  horiz-adv-x="1137" vert-adv-y="2048"  />

      
      <glyph glyph-name="unic9" unicode="&#xc9;" d="M1012 1600L1012 1393L357 1393L357 904L1012 904L1012 697L357 697L357 208L1012 208L1012 0L150 0L150 1600L1012 1600M642 1978L894 1978L622 1699L425 1699L642 1978Z"  horiz-adv-x="1137" vert-adv-y="2048"  />

      
      <glyph glyph-name="unica" unicode="&#xca;" d="M1012 1600L1012 1393L357 1393L357 904L1012 904L1012 697L357 697L357 208L1012 208L1012 0L150 0L150 1600L1012 1600M671 1749L579 1831L490 1749L271 1749L504 1987L651 1987L892 1749L671 1749Z"  horiz-adv-x="1137" vert-adv-y="2048"  />

      
      <glyph glyph-name="unicb" unicode="&#xcb;" d="M1012 1600L1012 1393L357 1393L357 904L1012 904L1012 697L357 697L357 208L1012 208L1012 0L150 0L150 1600L1012 1600M393 2009Q452 2009 495 1967Q538 1925 538 1865Q538 1804 495 1762Q452 1720 393 1720Q333 1720 290.50 1762Q248 1804 248 1865Q248 1925 290.50 1967Q333 2009 393 2009M769 2009Q828 2009 871 1967Q914 1925 914 1865Q914 1804 871 1762Q828 1720 769 1720Q709 1720 666.50 1762Q624 1804 624 1865Q624 1925 666.50 1967Q709 2009 769 2009Z"  horiz-adv-x="1137" vert-adv-y="2048"  />

      
      <glyph glyph-name="unicc" unicode="&#xcc;" d="M377 1600L377 0L170 0L170 1600L377 1600M430 1699L233 1699L-39 1978L213 1978L430 1699Z"  horiz-adv-x="548" vert-adv-y="2048"  />

      
      <glyph glyph-name="unicd" unicode="&#xcd;" d="M377 1600L377 0L170 0L170 1600L377 1600M334 1978L586 1978L314 1699L117 1699L334 1978Z"  horiz-adv-x="548" vert-adv-y="2048"  />

      
      <glyph glyph-name="unice" unicode="&#xce;" d="M377 1600L377 0L170 0L170 1600L377 1600M363 1749L271 1831L182 1749L-37 1749L196 1987L343 1987L584 1749L363 1749Z"  horiz-adv-x="548" vert-adv-y="2048"  />

      
      <glyph glyph-name="unicf" unicode="&#xcf;" d="M378 1600L378 0L171 0L171 1600L378 1600M86 2009Q145 2009 188 1967Q231 1925 231 1865Q231 1804 188 1762Q145 1720 86 1720Q26 1720-16.50 1762Q-59 1804-59 1865Q-59 1925-16.50 1967Q26 2009 86 2009M462 2009Q521 2009 564 1967Q607 1925 607 1865Q607 1804 564 1762Q521 1720 462 1720Q402 1720 359.50 1762Q317 1804 317 1865Q317 1925 359.50 1967Q402 2009 462 2009Z"  horiz-adv-x="548" vert-adv-y="2048"  />

      
      <glyph glyph-name="unid0" unicode="&#xd0;" d="M150 903L150 1600L302 1600Q692 1598 910 1379Q1149 1138 1149 800Q1149 461 910 221Q692 2 302 0L150 0L150 697L-40 697L-40 903L150 903M357 903L704 903L704 697L357 697L357 210Q604 210 762 369Q940 547 940 800Q940 1052 762 1231Q604 1389 357 1389L357 903Z"  horiz-adv-x="1250" vert-adv-y="2048"  />

      
      <glyph glyph-name="unid1" unicode="&#xd1;" d="M150 1600L339 1600L999 458L999 1600L1207 1600L1207 0L1026 0L357 1156L357 0L150 0L150 1600M703 1946Q703 1946 734 1917Q765 1888 791 1888L791 1887Q821 1887 821 1926Q821 1952 808 1995L994 1995Q956 1775 847 1743Q819 1735 791 1735Q717 1735 657.50 1792Q598 1849 570 1849L566 1849Q536 1847 536 1810Q536 1785 550 1744L363 1744Q402 1964 512 1996Q540 2004 568 2004Q641 2004 703 1946Z"  horiz-adv-x="1357" vert-adv-y="2048"  />

      
      <glyph glyph-name="unid2" unicode="&#xd2;" d="M944 1621Q1283 1621 1523 1381Q1763 1141 1763 802Q1763 463 1523 223Q1283-17 944-17Q605-17 365 223Q125 463 125 802Q125 1141 365 1381Q605 1621 944 1621M944 1412Q691 1412 512.50 1233.50Q334 1055 334 802Q334 549 513 370Q692 191 944 191Q1197 191 1375.50 370Q1554 549 1554 802Q1554 1055 1375.50 1233.50Q1197 1412 944 1412M1100 1699L903 1699L631 1978L883 1978L1100 1699Z"  horiz-adv-x="1889" vert-adv-y="2048"  />

      
      <glyph glyph-name="unid3" unicode="&#xd3;" d="M944 1621Q1283 1621 1523 1381Q1763 1141 1763 802Q1763 463 1523 223Q1283-17 944-17Q605-17 365 223Q125 463 125 802Q125 1141 365 1381Q605 1621 944 1621M944 1412Q691 1412 512.50 1233.50Q334 1055 334 802Q334 549 513 370Q692 191 944 191Q1197 191 1375.50 370Q1554 549 1554 802Q1554 1055 1375.50 1233.50Q1197 1412 944 1412M1005 1978L1257 1978L985 1699L788 1699L1005 1978Z"  horiz-adv-x="1889" vert-adv-y="2048"  />

      
      <glyph glyph-name="unid4" unicode="&#xd4;" d="M944 1621Q1283 1621 1523 1381Q1763 1141 1763 802Q1763 463 1523 223Q1283-17 944-17Q605-17 365 223Q125 463 125 802Q125 1141 365 1381Q605 1621 944 1621M944 1412Q691 1412 512.50 1233.50Q334 1055 334 802Q334 549 513 370Q692 191 944 191Q1197 191 1375.50 370Q1554 549 1554 802Q1554 1055 1375.50 1233.50Q1197 1412 944 1412M1034 1749L942 1831L853 1749L634 1749L867 1987L1014 1987L1255 1749L1034 1749Z"  horiz-adv-x="1889" vert-adv-y="2048"  />

      
      <glyph glyph-name="unid5" unicode="&#xd5;" d="M944 1621Q1283 1621 1523 1381Q1763 1141 1763 802Q1763 463 1523 223Q1283-17 944-17Q605-17 365 223Q125 463 125 802Q125 1141 365 1381Q605 1621 944 1621M944 1412Q691 1412 512.50 1233.50Q334 1055 334 802Q334 549 513 370Q692 191 944 191Q1197 191 1375.50 370Q1554 549 1554 802Q1554 1055 1375.50 1233.50Q1197 1412 944 1412M969 1946Q969 1946 1000 1917Q1031 1888 1057 1888L1057 1887Q1087 1887 1087 1926Q1087 1952 1074 1995L1260 1995Q1222 1775 1113 1743Q1085 1735 1057 1735Q983 1735 923.50 1792Q864 1849 836 1849L832 1849Q802 1847 802 1810Q802 1785 816 1744L629 1744Q668 1964 778 1996Q806 2004 834 2004Q907 2004 969 1946Z"  horiz-adv-x="1889" vert-adv-y="2048"  />

      
      <glyph glyph-name="unid6" unicode="&#xd6;" d="M944 1621Q1283 1621 1523 1381Q1763 1141 1763 802Q1763 463 1523 223Q1283-17 944-17Q605-17 365 223Q125 463 125 802Q125 1141 365 1381Q605 1621 944 1621M944 1412Q691 1412 512.50 1233.50Q334 1055 334 802Q334 549 513 370Q692 191 944 191Q1197 191 1375.50 370Q1554 549 1554 802Q1554 1055 1375.50 1233.50Q1197 1412 944 1412M756 2009Q815 2009 858 1967Q901 1925 901 1865Q901 1804 858 1762Q815 1720 756 1720Q696 1720 653.50 1762Q611 1804 611 1865Q611 1925 653.50 1967Q696 2009 756 2009M1132 2009Q1191 2009 1234 1967Q1277 1925 1277 1865Q1277 1804 1234 1762Q1191 1720 1132 1720Q1072 1720 1029.50 1762Q987 1804 987 1865Q987 1925 1029.50 1967Q1072 2009 1132 2009Z"  horiz-adv-x="1889" vert-adv-y="2048"  />

      
      <glyph glyph-name="unid7" unicode="&#xd7;" d="M588 461L357 230L210 377L441 608L210 840L357 987L588 755L820 987L965 839L734 608L965 377L820 230L588 461Z"  horiz-adv-x="1177" vert-adv-y="2048"  />

      
      <glyph glyph-name="unid8" unicode="&#xd8;" d="M1106 1396Q1065 1412 944 1412Q691 1412 512.50 1233.50Q334 1055 334 802Q334 549 513 370Q578 305 594 296L1106 1396M781 208Q823 191 944 191Q1197 191 1375.50 370Q1554 549 1554 802Q1554 1055 1376 1234Q1311 1299 1294 1308L781 208M1383 1498Q1434 1470 1524 1382Q1763 1141 1763 802Q1763 463 1523 223Q1283-17 944-17Q780-17 693 18L613-155L424-67L505 106Q454 134 365 223Q125 463 125 802Q125 1141 365 1381Q605 1621 944 1621Q1108 1621 1195 1586L1276 1759L1464 1671L1383 1498Z"  horiz-adv-x="1889" vert-adv-y="2048"  />

      
      <glyph glyph-name="unid9" unicode="&#xd9;" d="M1030 1600L1238 1600L1238 473Q1211 280 1079 147Q919-13 694-13Q469-13 309.50 146.50Q150 306 150 531L150 1600L358 1600L358 531Q358 393 456.50 294.50Q555 196 694 196Q834 196 932 294Q1030 392 1030 531L1030 1600M850 1699L653 1699L381 1978L633 1978L850 1699Z"  horiz-adv-x="1388" vert-adv-y="2048"  />

      
      <glyph glyph-name="unida" unicode="&#xda;" d="M1030 1600L1238 1600L1238 473Q1211 280 1079 147Q919-13 694-13Q469-13 309.50 146.50Q150 306 150 531L150 1600L358 1600L358 531Q358 393 456.50 294.50Q555 196 694 196Q834 196 932 294Q1030 392 1030 531L1030 1600M755 1978L1007 1978L735 1699L538 1699L755 1978Z"  horiz-adv-x="1388" vert-adv-y="2048"  />

      
      <glyph glyph-name="unidb" unicode="&#xdb;" d="M1030 1600L1238 1600L1238 473Q1211 280 1079 147Q919-13 694-13Q469-13 309.50 146.50Q150 306 150 531L150 1600L358 1600L358 531Q358 393 456.50 294.50Q555 196 694 196Q834 196 932 294Q1030 392 1030 531L1030 1600M784 1749L692 1831L603 1749L384 1749L617 1987L764 1987L1005 1749L784 1749Z"  horiz-adv-x="1388" vert-adv-y="2048"  />

      
      <glyph glyph-name="unidc" unicode="&#xdc;" d="M1030 1600L1238 1600L1238 473Q1211 280 1079 147Q919-13 694-13Q469-13 309.50 146.50Q150 306 150 531L150 1600L358 1600L358 531Q358 393 456.50 294.50Q555 196 694 196Q834 196 932 294Q1030 392 1030 531L1030 1600M506 2009Q565 2009 608 1967Q651 1925 651 1865Q651 1804 608 1762Q565 1720 506 1720Q446 1720 403.50 1762Q361 1804 361 1865Q361 1925 403.50 1967Q446 2009 506 2009M882 2009Q941 2009 984 1967Q1027 1925 1027 1865Q1027 1804 984 1762Q941 1720 882 1720Q822 1720 779.50 1762Q737 1804 737 1865Q737 1925 779.50 1967Q822 2009 882 2009Z"  horiz-adv-x="1388" vert-adv-y="2048"  />

      
      <glyph glyph-name="unidd" unicode="&#xdd;" d="M603 642L50 1600L288 1600L706 876L1125 1600L1364 1600L810 642L810 0L603 0L603 642M768 1978L1020 1978L748 1699L551 1699L768 1978Z"  horiz-adv-x="1414" vert-adv-y="2048"  />

      
      <glyph glyph-name="unide" unicode="&#xde;" d="M357 1345L604 1345Q797 1318 930 1185Q1089 1026 1089 801Q1089 575 930 416Q771 257 546 257L357 257L357 0L150 0L150 1600L357 1600L357 1345M357 465L546 465Q684 465 782.50 563.50Q881 662 881 801Q881 940 782.50 1038Q684 1136 546 1136L357 1136L357 465Z"  horiz-adv-x="1180" vert-adv-y="2048"  />

      
      <glyph glyph-name="unidf" unicode="&#xdf;" d="M469 1607L485 1607Q619 1607 715 1529Q820 1442 829 1273L829 1256Q829 1092 783 1064Q1038 962 1052 572Q1052 336 887 165Q731 4 576 2L576 0L498 0L498 208L576 208L576 211Q640 215 735 314Q840 422 840 571Q840 718 735.50 822.50Q631 927 490 927L490 1137Q555 1145 589 1176.50Q623 1208 623 1263Q623 1321 587 1362Q557 1396 494 1396L485 1396Q416 1394 384 1355.50Q352 1317 347 1228L347 0L140 0L140 1246Q151 1419 236.50 1510.50Q322 1602 469 1607Z"  horiz-adv-x="1142" vert-adv-y="2048"  />

      
      <glyph glyph-name="unie0" unicode="&#xe0;" d="M1042 466L1042 618Q1024 715 946 794Q841 898 694 898Q546 898 441.50 794Q337 690 337 542Q337 395 441.50 290.50Q546 186 694 186Q841 186 946 290Q1024 369 1042 466M1042 957L1042 1029L1250 1029L1250-1L1042-1L1042 128Q892-27 694-27Q458-27 291.50 139.50Q125 306 125 542Q125 778 291.50 944.50Q458 1111 694 1111Q892 1111 1042 957M844 1128L647 1128L375 1407L627 1407L844 1128Z"  horiz-adv-x="1401" vert-adv-y="2048"  />

      
      <glyph glyph-name="unie1" unicode="&#xe1;" d="M1042 466L1042 618Q1024 715 946 794Q841 898 694 898Q546 898 441.50 794Q337 690 337 542Q337 395 441.50 290.50Q546 186 694 186Q841 186 946 290Q1024 369 1042 466M1042 957L1042 1029L1250 1029L1250-1L1042-1L1042 128Q892-27 694-27Q458-27 291.50 139.50Q125 306 125 542Q125 778 291.50 944.50Q458 1111 694 1111Q892 1111 1042 957M748 1407L1000 1407L728 1128L531 1128L748 1407Z"  horiz-adv-x="1401" vert-adv-y="2048"  />

      
      <glyph glyph-name="unie2" unicode="&#xe2;" d="M1042 466L1042 618Q1024 715 946 794Q841 898 694 898Q546 898 441.50 794Q337 690 337 542Q337 395 441.50 290.50Q546 186 694 186Q841 186 946 290Q1024 369 1042 466M1042 957L1042 1029L1250 1029L1250-1L1042-1L1042 128Q892-27 694-27Q458-27 291.50 139.50Q125 306 125 542Q125 778 291.50 944.50Q458 1111 694 1111Q892 1111 1042 957M777 1178L685 1260L596 1178L377 1178L610 1416L757 1416L998 1178L777 1178Z"  horiz-adv-x="1401" vert-adv-y="2048"  />

      
      <glyph glyph-name="unie3" unicode="&#xe3;" d="M1042 466L1042 618Q1024 715 946 794Q841 898 694 898Q546 898 441.50 794Q337 690 337 542Q337 395 441.50 290.50Q546 186 694 186Q841 186 946 290Q1024 369 1042 466M1042 957L1042 1029L1250 1029L1250-1L1042-1L1042 128Q892-27 694-27Q458-27 291.50 139.50Q125 306 125 542Q125 778 291.50 944.50Q458 1111 694 1111Q892 1111 1042 957M712 1375Q712 1375 743 1346Q774 1317 800 1317L800 1316Q830 1316 830 1355Q830 1381 817 1424L1003 1424Q965 1204 856 1172Q828 1164 800 1164Q726 1164 666.50 1221Q607 1278 579 1278L575 1278Q545 1276 545 1239Q545 1214 559 1173L372 1173Q411 1393 521 1425Q549 1433 577 1433Q650 1433 712 1375Z"  horiz-adv-x="1401" vert-adv-y="2048"  />

      
      <glyph glyph-name="unie4" unicode="&#xe4;" d="M1042 466L1042 618Q1024 715 946 794Q841 898 694 898Q546 898 441.50 794Q337 690 337 542Q337 395 441.50 290.50Q546 186 694 186Q841 186 946 290Q1024 369 1042 466M1042 957L1042 1029L1250 1029L1250-1L1042-1L1042 128Q892-27 694-27Q458-27 291.50 139.50Q125 306 125 542Q125 778 291.50 944.50Q458 1111 694 1111Q892 1111 1042 957M500 1438Q559 1438 602 1396Q645 1354 645 1294Q645 1233 602 1191Q559 1149 500 1149Q440 1149 397.50 1191Q355 1233 355 1294Q355 1354 397.50 1396Q440 1438 500 1438M876 1438Q935 1438 978 1396Q1021 1354 1021 1294Q1021 1233 978 1191Q935 1149 876 1149Q816 1149 773.50 1191Q731 1233 731 1294Q731 1354 773.50 1396Q816 1438 876 1438Z"  horiz-adv-x="1401" vert-adv-y="2048"  />

      
      <glyph glyph-name="unie5" unicode="&#xe5;" d="M1042 466L1042 618Q1024 715 946 794Q841 898 694 898Q546 898 441.50 794Q337 690 337 542Q337 395 441.50 290.50Q546 186 694 186Q841 186 946 290Q1024 369 1042 466M690 1199Q712 1199 728 1214.50Q744 1230 744 1253Q744 1281 728 1296.50Q712 1312 690 1312Q662 1312 646.50 1296.50Q631 1281 631 1253Q631 1230 646.50 1214.50Q662 1199 690 1199M822 1094Q943 1059 1042 957L1042 1029L1250 1029L1250-1L1042-1L1042 128Q892-27 694-27Q458-27 291.50 139.50Q125 306 125 542Q125 778 292 945Q405 1058 552 1094Q545 1100 539 1107Q477 1169 477 1255Q477 1342 538.50 1404Q600 1466 688 1466Q775 1466 836.50 1404Q898 1342 898 1255Q898 1169 837 1107Q829 1100 822 1094Z"  horiz-adv-x="1401" vert-adv-y="2048"  />

      
      <glyph glyph-name="unie6" unicode="&#xe6;" d="M972 714Q948 757 910 795Q806 899 658 899Q511 899 406.50 795Q302 691 302 543Q302 395 406.50 291Q511 187 658 187Q806 187 910 292Q949 330 972 372Q999 419 1008 467L1008 619Q999 667 972 714M1804 736L1745 795Q1641 899 1493 899Q1345 899 1241 795Q1219 773 1215 767L1215 736L1804 736M1008 992L1008 1030L1215 1030Q1271 1112 1493 1112Q1729 1112 1896 945Q2044 796 2052 528L1215 529L1215 319Q1219 313 1240 292Q1345 187 1493 187Q1641 187 1745 292Q1764 311 1808 365L2010 294Q1951 196 1896 141Q1729-25 1493-25Q1271-25 1215 27L1215 0L1008 0L1008 95Q858-25 658-25Q423-25 256.50 141.50Q90 308 90 543Q90 779 256.50 945.50Q423 1112 658 1112Q858 1112 1008 992Z"  horiz-adv-x="2142" vert-adv-y="2048"  />

      
      <glyph glyph-name="unie7" unicode="&#xe7;" d="M570-21Q391 6 257 140Q90 307 90 543Q90 779 257 946Q424 1113 659 1113Q895 1113 1062 946Q1096 912 1172 809L965 733Q925 782 911 796Q807 900 659 900Q512 900 407.50 795.50Q303 691 303 543Q303 396 407.50 291.50Q512 187 659 187Q807 187 912 291Q925 305 965 353L1172 279Q1096 174 1062 140Q916-6 717-24L710-44Q784-82 805-133Q809-147 812-160Q815-173 815-186Q815-229 784-267Q735-326 640-340Q621-343 596-343Q538-343 447-328L482-202Q539-228 575-228Q581-228 586-227Q617-223 626-192Q629-185 629-177Q629-173 628-169Q622-141 536-113L570-21Z"  horiz-adv-x="1262" vert-adv-y="2048"  />

      
      <glyph glyph-name="unie8" unicode="&#xe8;" d="M470 233Q522 187 659 187Q807 187 912 291Q925 305 965 353L1172 279Q1096 174 1062 140Q895-27 659-27Q424-27 257 140Q90 307 90 543Q90 779 257 946Q424 1113 659 1113Q861 1113 1013 991Q1038 970 1062 946Q1072 936 1119 883L1015 778L470 233M816 873Q781 900 659 900Q512 900 407.50 795.50Q303 691 303 543Q303 422 330 386L816 873M787 1128L590 1128L318 1407L570 1407L787 1128Z"  horiz-adv-x="1262" vert-adv-y="2048"  />

      
      <glyph glyph-name="unie9" unicode="&#xe9;" d="M470 233Q522 187 659 187Q807 187 912 291Q925 305 965 353L1172 279Q1096 174 1062 140Q895-27 659-27Q424-27 257 140Q90 307 90 543Q90 779 257 946Q424 1113 659 1113Q861 1113 1013 991Q1038 970 1062 946Q1072 936 1119 883L1015 778L470 233M816 873Q781 900 659 900Q512 900 407.50 795.50Q303 691 303 543Q303 422 330 386L816 873M692 1407L944 1407L672 1128L475 1128L692 1407Z"  horiz-adv-x="1262" vert-adv-y="2048"  />

      
      <glyph glyph-name="uniea" unicode="&#xea;" d="M470 233Q522 187 659 187Q807 187 912 291Q925 305 965 353L1172 279Q1096 174 1062 140Q895-27 659-27Q424-27 257 140Q90 307 90 543Q90 779 257 946Q424 1113 659 1113Q861 1113 1013 991Q1038 970 1062 946Q1072 936 1119 883L1015 778L470 233M816 873Q781 900 659 900Q512 900 407.50 795.50Q303 691 303 543Q303 422 330 386L816 873M721 1178L629 1260L540 1178L321 1178L554 1416L701 1416L942 1178L721 1178Z"  horiz-adv-x="1262" vert-adv-y="2048"  />

      
      <glyph glyph-name="unieb" unicode="&#xeb;" d="M470 233Q522 187 659 187Q807 187 912 291Q925 305 965 353L1172 279Q1096 174 1062 140Q895-27 659-27Q424-27 257 140Q90 307 90 543Q90 779 257 946Q424 1113 659 1113Q861 1113 1013 991Q1038 970 1062 946Q1072 936 1119 883L1015 778L470 233M816 873Q781 900 659 900Q512 900 407.50 795.50Q303 691 303 543Q303 422 330 386L816 873M443 1438Q502 1438 545 1396Q588 1354 588 1294Q588 1233 545 1191Q502 1149 443 1149Q383 1149 340.50 1191Q298 1233 298 1294Q298 1354 340.50 1396Q383 1438 443 1438M819 1438Q878 1438 921 1396Q964 1354 964 1294Q964 1233 921 1191Q878 1149 819 1149Q759 1149 716.50 1191Q674 1233 674 1294Q674 1354 716.50 1396Q759 1438 819 1438Z"  horiz-adv-x="1262" vert-adv-y="2048"  />

      
      <glyph glyph-name="uniec" unicode="&#xec;" d="M377 1030L377 0L170 0L170 1030L377 1030M430 1128L233 1128L-39 1407L213 1407L430 1128Z"  horiz-adv-x="548" vert-adv-y="2048"  />

      
      <glyph glyph-name="unied" unicode="&#xed;" d="M377 1030L377 0L170 0L170 1030L377 1030M334 1407L586 1407L314 1128L117 1128L334 1407Z"  horiz-adv-x="548" vert-adv-y="2048"  />

      
      <glyph glyph-name="uniee" unicode="&#xee;" d="M377 1030L377 0L170 0L170 1030L377 1030M363 1178L271 1260L182 1178L-37 1178L196 1416L343 1416L584 1178L363 1178Z"  horiz-adv-x="548" vert-adv-y="2048"  />

      
      <glyph glyph-name="unief" unicode="&#xef;" d="M378 1030L378 0L171 0L171 1030L378 1030M86 1438Q145 1438 188 1396Q231 1354 231 1294Q231 1233 188 1191Q145 1149 86 1149Q26 1149-16.50 1191Q-59 1233-59 1294Q-59 1354-16.50 1396Q26 1438 86 1438M462 1438Q521 1438 564 1396Q607 1354 607 1294Q607 1233 564 1191Q521 1149 462 1149Q402 1149 359.50 1191Q317 1233 317 1294Q317 1354 359.50 1396Q402 1438 462 1438Z"  horiz-adv-x="548" vert-adv-y="2048"  />

      
      <glyph glyph-name="unif0" unicode="&#xf0;" d="M406.50 795Q406.50 795 354.25 742.50Q302 690 302 543Q302 395 406.50 291Q511 187 659 187Q807 187 911.50 291Q1016 395 1016 543Q1016 690 911.50 795Q807 900 659 900Q511 900 406.50 795M1165 808Q1228 689 1228 543Q1228 307 1061.50 140Q895-27 659-27Q424-27 257 140Q90 307 90 543Q90 779 257 946Q424 1113 659 1113Q676 1113 693 1112L527 1296L403 1208L146 1208L428 1406L246 1600L498 1600L578 1512L713 1600L965 1600L672 1399L1013 990Q1038 969 1062 946Q1125 883 1164 809L1165 808Z"  horiz-adv-x="1318" vert-adv-y="2048"  />

      
      <glyph glyph-name="unif1" unicode="&#xf1;" d="M358 753L358 0L150 0L150 1029L358 1029L358 909Q423 1085 619 1085Q786 1085 884.50 966.50Q983 848 986 669L986 0L779 0L779 661Q779 750 714 813.50Q649 877 559 877Q470 877 405 815Q369 778 358 753M593 1375Q593 1375 624 1346Q655 1317 681 1317L681 1316Q711 1316 711 1355Q711 1381 698 1424L884 1424Q846 1204 737 1172Q709 1164 681 1164Q607 1164 547.50 1221Q488 1278 460 1278L456 1278Q426 1276 426 1239Q426 1214 440 1173L253 1173Q292 1393 402 1425Q430 1433 458 1433Q531 1433 593 1375Z"  horiz-adv-x="1139" vert-adv-y="2048"  />

      
      <glyph glyph-name="unif2" unicode="&#xf2;" d="M659 1113Q895 1113 1061.50 946Q1228 779 1228 543Q1228 307 1061.50 140Q895-27 659-27Q424-27 257 140Q90 307 90 543Q90 779 257 946Q424 1113 659 1113M659 900Q511 900 406.50 795Q302 690 302 543Q302 395 406.50 291Q511 187 659 187Q807 187 911.50 291Q1016 395 1016 543Q1016 690 911.50 795Q807 900 659 900M815 1128L618 1128L346 1407L598 1407L815 1128Z"  horiz-adv-x="1318" vert-adv-y="2048"  />

      
      <glyph glyph-name="unif3" unicode="&#xf3;" d="M659 1113Q895 1113 1061.50 946Q1228 779 1228 543Q1228 307 1061.50 140Q895-27 659-27Q424-27 257 140Q90 307 90 543Q90 779 257 946Q424 1113 659 1113M659 900Q511 900 406.50 795Q302 690 302 543Q302 395 406.50 291Q511 187 659 187Q807 187 911.50 291Q1016 395 1016 543Q1016 690 911.50 795Q807 900 659 900M720 1407L972 1407L700 1128L503 1128L720 1407Z"  horiz-adv-x="1318" vert-adv-y="2048"  />

      
      <glyph glyph-name="unif4" unicode="&#xf4;" d="M659 1113Q895 1113 1061.50 946Q1228 779 1228 543Q1228 307 1061.50 140Q895-27 659-27Q424-27 257 140Q90 307 90 543Q90 779 257 946Q424 1113 659 1113M659 900Q511 900 406.50 795Q302 690 302 543Q302 395 406.50 291Q511 187 659 187Q807 187 911.50 291Q1016 395 1016 543Q1016 690 911.50 795Q807 900 659 900M749 1178L657 1260L568 1178L349 1178L582 1416L729 1416L970 1178L749 1178Z"  horiz-adv-x="1318" vert-adv-y="2048"  />

      
      <glyph glyph-name="unif5" unicode="&#xf5;" d="M659 1113Q895 1113 1061.50 946Q1228 779 1228 543Q1228 307 1061.50 140Q895-27 659-27Q424-27 257 140Q90 307 90 543Q90 779 257 946Q424 1113 659 1113M659 900Q511 900 406.50 795Q302 690 302 543Q302 395 406.50 291Q511 187 659 187Q807 187 911.50 291Q1016 395 1016 543Q1016 690 911.50 795Q807 900 659 900M684 1375Q684 1375 715 1346Q746 1317 772 1317L772 1316Q802 1316 802 1355Q802 1381 789 1424L975 1424Q937 1204 828 1172Q800 1164 772 1164Q698 1164 638.50 1221Q579 1278 551 1278L547 1278Q517 1276 517 1239Q517 1214 531 1173L344 1173Q383 1393 493 1425Q521 1433 549 1433Q622 1433 684 1375Z"  horiz-adv-x="1318" vert-adv-y="2048"  />

      
      <glyph glyph-name="unif6" unicode="&#xf6;" d="M659 1113Q895 1113 1061.50 946Q1228 779 1228 543Q1228 307 1061.50 140Q895-27 659-27Q424-27 257 140Q90 307 90 543Q90 779 257 946Q424 1113 659 1113M659 900Q511 900 406.50 795Q302 690 302 543Q302 395 406.50 291Q511 187 659 187Q807 187 911.50 291Q1016 395 1016 543Q1016 690 911.50 795Q807 900 659 900M471 1438Q530 1438 573 1396Q616 1354 616 1294Q616 1233 573 1191Q530 1149 471 1149Q411 1149 368.50 1191Q326 1233 326 1294Q326 1354 368.50 1396Q411 1438 471 1438M847 1438Q906 1438 949 1396Q992 1354 992 1294Q992 1233 949 1191Q906 1149 847 1149Q787 1149 744.50 1191Q702 1233 702 1294Q702 1354 744.50 1396Q787 1438 847 1438Z"  horiz-adv-x="1318" vert-adv-y="2048"  />

      
      <glyph glyph-name="unif7" unicode="&#xf7;" d="M125 732L987 732L987 525L125 525L125 732M556 1057Q616 1057 658.50 1015Q701 973 701 913Q701 852 658.50 810Q616 768 556 768Q496 768 453.50 810Q411 852 411 913Q411 973 453.50 1015Q496 1057 556 1057M556 488Q616 488 658.50 446Q701 404 701 344Q701 283 658.50 241Q616 199 556 199Q496 199 453.50 241Q411 283 411 344Q411 404 453.50 446Q496 488 556 488Z"  horiz-adv-x="1112" vert-adv-y="2048"  />

      
      <glyph glyph-name="unif8" unicode="&#xf8;" d="M744 898Q739 900 658 900Q511 900 406.50 795.50Q302 691 302 544Q302 396 395 293L744 898M573 190Q578 188 658 188Q806 188 910.50 292Q1015 396 1015 544Q1015 691 910 796L573 190M294 105L257 142Q90 309 90 544Q90 780 256.50 946.50Q423 1113 658 1113Q792 1113 852 1084L965 1281L1149 1186L1024 984L1061 946Q1227 780 1227 544Q1227 309 1060.50 142Q894-25 658-25Q525-25 466 4L352-192L167-103L294 105Z"  horiz-adv-x="1317" vert-adv-y="2048"  />

      
      <glyph glyph-name="unif9" unicode="&#xf9;" d="M586-14Q391-14 272 105Q153 224 150 403L150 1029L358 1029L358 411Q358 322 423 258Q488 194 585 194Q674 194 739.50 257.50Q805 321 805 411L805 1029L1012 1029L1012 403Q1009 224 891 105Q772-14 586-14M737 1128L540 1128L268 1407L520 1407L737 1128Z"  horiz-adv-x="1162" vert-adv-y="2048"  />

      
      <glyph glyph-name="unifa" unicode="&#xfa;" d="M586-14Q391-14 272 105Q153 224 150 403L150 1029L358 1029L358 411Q358 322 423 258Q488 194 585 194Q674 194 739.50 257.50Q805 321 805 411L805 1029L1012 1029L1012 403Q1009 224 891 105Q772-14 586-14M642 1407L894 1407L622 1128L425 1128L642 1407Z"  horiz-adv-x="1162" vert-adv-y="2048"  />

      
      <glyph glyph-name="unifb" unicode="&#xfb;" d="M586-14Q391-14 272 105Q153 224 150 403L150 1029L358 1029L358 411Q358 322 423 258Q488 194 585 194Q674 194 739.50 257.50Q805 321 805 411L805 1029L1012 1029L1012 403Q1009 224 891 105Q772-14 586-14M671 1178L579 1260L490 1178L271 1178L504 1416L651 1416L892 1178L671 1178Z"  horiz-adv-x="1162" vert-adv-y="2048"  />

      
      <glyph glyph-name="unifc" unicode="&#xfc;" d="M586-14Q391-14 272 105Q153 224 150 403L150 1029L358 1029L358 411Q358 322 423 258Q488 194 585 194Q674 194 739.50 257.50Q805 321 805 411L805 1029L1012 1029L1012 403Q1009 224 891 105Q772-14 586-14M393 1438Q452 1438 495 1396Q538 1354 538 1294Q538 1233 495 1191Q452 1149 393 1149Q333 1149 290.50 1191Q248 1233 248 1294Q248 1354 290.50 1396Q333 1438 393 1438M769 1438Q828 1438 871 1396Q914 1354 914 1294Q914 1233 871 1191Q828 1149 769 1149Q709 1149 666.50 1191Q624 1233 624 1294Q624 1354 666.50 1396Q709 1438 769 1438Z"  horiz-adv-x="1162" vert-adv-y="2048"  />

      
      <glyph glyph-name="unifd" unicode="&#xfd;" d="M403-346L184-346L458 229L75 1029L308 1029L569 466L830 1029L1062 1029L403-346M629 1407L881 1407L609 1128L412 1128L629 1407Z"  horiz-adv-x="1139" vert-adv-y="2048"  />

      
      <glyph glyph-name="unife" unicode="&#xfe;" d="M357 462Q376 368 453 291Q558 186 705 186Q853 186 957.50 290.50Q1062 395 1062 543Q1062 691 957.50 795Q853 899 705 899Q558 899 453 795Q376 718 357 623L357 462M357 158L357-345L150-345L150 1600L357 1600L357 921Q507 1111 705 1111Q941 1111 1107.50 945Q1274 779 1274 543Q1274 308 1108 141.50Q942-25 705-25Q506-25 357 158Z"  horiz-adv-x="1374" vert-adv-y="2048"  />

      
      <glyph glyph-name="uniff" unicode="&#xff;" d="M403-346L184-346L458 229L75 1029L308 1029L569 466L830 1029L1062 1029L403-346M381 1438Q440 1438 483 1396Q526 1354 526 1294Q526 1233 483 1191Q440 1149 381 1149Q321 1149 278.50 1191Q236 1233 236 1294Q236 1354 278.50 1396Q321 1438 381 1438M757 1438Q816 1438 859 1396Q902 1354 902 1294Q902 1233 859 1191Q816 1149 757 1149Q697 1149 654.50 1191Q612 1233 612 1294Q612 1354 654.50 1396Q697 1438 757 1438Z"  horiz-adv-x="1139" vert-adv-y="2048"  />

      
      <glyph glyph-name="uni0100" unicode="&#x0100;" d="M825 773L688 1148L552 773L825 773M744 1600L1326 0L1106 0L900 566L476 566L271 0L50 0L632 1600L744 1600M405 2008L972 2008L972 1801L405 1801L405 2008Z"  horiz-adv-x="1376" vert-adv-y="2048"  />

      
      <glyph glyph-name="uni0101" unicode="&#x0101;" d="M1042 466L1042 618Q1024 715 946 794Q841 898 694 898Q546 898 441.50 794Q337 690 337 542Q337 395 441.50 290.50Q546 186 694 186Q841 186 946 290Q1024 369 1042 466M1042 957L1042 1029L1250 1029L1250-1L1042-1L1042 128Q892-27 694-27Q458-27 291.50 139.50Q125 306 125 542Q125 778 291.50 944.50Q458 1111 694 1111Q892 1111 1042 957M404 1437L971 1437L971 1230L404 1230L404 1437Z"  horiz-adv-x="1401" vert-adv-y="2048"  />

      
      <glyph glyph-name="uni0102" unicode="&#x0102;" d="M825 773L688 1148L552 773L825 773M744 1600L1326 0L1106 0L900 566L476 566L271 0L50 0L632 1600L744 1600M600 1984Q611 1922 626 1907Q652 1881 689 1881Q725 1881 751 1908Q766 1922 776 1984L966 1984Q944 1861 886 1802Q805 1720 689 1720Q572 1720 491 1802Q428 1865 411 1984L600 1984Z"  horiz-adv-x="1376" vert-adv-y="2048"  />

      
      <glyph glyph-name="uni0103" unicode="&#x0103;" d="M1042 466L1042 618Q1024 715 946 794Q841 898 694 898Q546 898 441.50 794Q337 690 337 542Q337 395 441.50 290.50Q546 186 694 186Q841 186 946 290Q1024 369 1042 466M1042 957L1042 1029L1250 1029L1250-1L1042-1L1042 128Q892-27 694-27Q458-27 291.50 139.50Q125 306 125 542Q125 778 291.50 944.50Q458 1111 694 1111Q892 1111 1042 957M599 1413Q610 1351 625 1336Q651 1310 688 1310Q724 1310 750 1337Q765 1351 775 1413L965 1413Q943 1290 885 1231Q804 1149 688 1149Q571 1149 490 1231Q427 1294 410 1413L599 1413Z"  horiz-adv-x="1401" vert-adv-y="2048"  />

      
      <glyph glyph-name="uni0104" unicode="&#x0104;" d="M825 773L688 1148L552 773L825 773M1079 75L900 566L476 566L271 0L50 0L632 1600L744 1600L1326 0L1171 0Q1120-71 1120-119Q1120-135 1126-148Q1141-185 1172-185Q1209-185 1268-134L1326-287Q1204-337 1141-337Q1046-337 987-271Q939-217 939-141Q939-124 941-106Q955-10 1079 75Z"  horiz-adv-x="1376" vert-adv-y="2048"  />

      
      <glyph glyph-name="uni0105" unicode="&#x0105;" d="M1042 466L1042 618Q1024 715 946 794Q841 898 694 898Q546 898 441.50 794Q337 690 337 542Q337 395 441.50 290.50Q546 186 694 186Q841 186 946 290Q1024 369 1042 466M1042 60L1042 128Q892-27 694-27Q458-27 291.50 139.50Q125 306 125 542Q125 778 291.50 944.50Q458 1111 694 1111Q892 1111 1042 957L1042 1029L1250 1029L1250-1L1155-1Q1104-72 1104-119Q1104-135 1110-148Q1125-185 1156-185Q1193-185 1252-134L1310-287Q1188-337 1125-337Q1030-337 971-271Q923-217 923-141Q923-124 925-106Q938-18 1042 60Z"  horiz-adv-x="1401" vert-adv-y="2048"  />

      
      <glyph glyph-name="uni0106" unicode="&#x0106;" d="M1388 381L1543 242Q1259-17 942-17Q603-17 364 222Q125 461 125 800Q125 1138 364 1378Q603 1618 942 1618Q1259 1618 1543 1359L1388 1218Q1174 1408 942 1408Q691 1408 512.50 1230Q334 1052 334 800Q334 547 512.50 369Q691 191 942 191Q1174 191 1388 381M895 1978L1147 1978L875 1699L678 1699L895 1978Z"  horiz-adv-x="1642" vert-adv-y="2048"  />

      
      <glyph glyph-name="uni0107" unicode="&#x0107;" d="M965 353L1172 279Q1096 174 1062 140Q895-27 659-27Q424-27 257 140Q90 307 90 543Q90 779 257 946Q424 1113 659 1113Q895 1113 1062 946Q1096 912 1172 809L965 733Q925 782 911 796Q807 900 659 900Q512 900 407.50 795.50Q303 691 303 543Q303 396 407.50 291.50Q512 187 659 187Q807 187 912 291Q925 305 965 353M692 1407L944 1407L672 1128L475 1128L692 1407Z"  horiz-adv-x="1262" vert-adv-y="2048"  />

      
      <glyph glyph-name="uni0108" unicode="&#x0108;" d="M1388 381L1543 242Q1259-17 942-17Q603-17 364 222Q125 461 125 800Q125 1138 364 1378Q603 1618 942 1618Q1259 1618 1543 1359L1388 1218Q1174 1408 942 1408Q691 1408 512.50 1230Q334 1052 334 800Q334 547 512.50 369Q691 191 942 191Q1174 191 1388 381M924 1749L832 1831L743 1749L524 1749L757 1987L904 1987L1145 1749L924 1749Z"  horiz-adv-x="1642" vert-adv-y="2048"  />

      
      <glyph glyph-name="uni0109" unicode="&#x0109;" d="M965 353L1172 279Q1096 174 1062 140Q895-27 659-27Q424-27 257 140Q90 307 90 543Q90 779 257 946Q424 1113 659 1113Q895 1113 1062 946Q1096 912 1172 809L965 733Q925 782 911 796Q807 900 659 900Q512 900 407.50 795.50Q303 691 303 543Q303 396 407.50 291.50Q512 187 659 187Q807 187 912 291Q925 305 965 353M721 1178L629 1260L540 1178L321 1178L554 1416L701 1416L942 1178L721 1178Z"  horiz-adv-x="1262" vert-adv-y="2048"  />

      
      <glyph glyph-name="uni010A" unicode="&#x010A;" d="M1388 381L1543 242Q1259-17 942-17Q603-17 364 222Q125 461 125 800Q125 1138 364 1378Q603 1618 942 1618Q1259 1618 1543 1359L1388 1218Q1174 1408 942 1408Q691 1408 512.50 1230Q334 1052 334 800Q334 547 512.50 369Q691 191 942 191Q1174 191 1388 381M835 2007Q889 2007 928 1969Q967 1931 967 1875Q967 1819 928 1781Q889 1743 835 1743Q780 1743 741 1781Q702 1819 702 1875Q702 1931 741 1969Q780 2007 835 2007Z"  horiz-adv-x="1642" vert-adv-y="2048"  />

      
      <glyph glyph-name="uni010B" unicode="&#x010B;" d="M965 353L1172 279Q1096 174 1062 140Q895-27 659-27Q424-27 257 140Q90 307 90 543Q90 779 257 946Q424 1113 659 1113Q895 1113 1062 946Q1096 912 1172 809L965 733Q925 782 911 796Q807 900 659 900Q512 900 407.50 795.50Q303 691 303 543Q303 396 407.50 291.50Q512 187 659 187Q807 187 912 291Q925 305 965 353M632 1436Q686 1436 725 1398Q764 1360 764 1304Q764 1248 725 1210Q686 1172 632 1172Q577 1172 538 1210Q499 1248 499 1304Q499 1360 538 1398Q577 1436 632 1436Z"  horiz-adv-x="1262" vert-adv-y="2048"  />

      
      <glyph glyph-name="uni010C" unicode="&#x010C;" d="M1388 381L1543 242Q1259-17 942-17Q603-17 364 222Q125 461 125 800Q125 1138 364 1378Q603 1618 942 1618Q1259 1618 1543 1359L1388 1218Q1174 1408 942 1408Q691 1408 512.50 1230Q334 1052 334 800Q334 547 512.50 369Q691 191 942 191Q1174 191 1388 381M1145 1987L904 1749L757 1749L524 1987L743 1987L832 1905L924 1987L1145 1987Z"  horiz-adv-x="1642" vert-adv-y="2048"  />

      
      <glyph glyph-name="uni010D" unicode="&#x010D;" d="M965 353L1172 279Q1096 174 1062 140Q895-27 659-27Q424-27 257 140Q90 307 90 543Q90 779 257 946Q424 1113 659 1113Q895 1113 1062 946Q1096 912 1172 809L965 733Q925 782 911 796Q807 900 659 900Q512 900 407.50 795.50Q303 691 303 543Q303 396 407.50 291.50Q512 187 659 187Q807 187 912 291Q925 305 965 353M942 1416L701 1178L554 1178L321 1416L540 1416L629 1334L721 1416L942 1416Z"  horiz-adv-x="1262" vert-adv-y="2048"  />

      
      <glyph glyph-name="uni010E" unicode="&#x010E;" d="M357 1389L357 210Q604 210 762 369Q940 547 940 800Q940 1052 762 1231Q604 1389 357 1389M302 1600Q692 1598 910 1379Q1149 1138 1149 800Q1149 461 910 221Q692 2 302 0L150 0L150 1600L302 1600M960 1987L719 1749L572 1749L339 1987L558 1987L647 1905L739 1987L960 1987Z"  horiz-adv-x="1250" vert-adv-y="2048"  />

      
      <glyph glyph-name="uni010F" unicode="&#x010F;" d="M1043 466L1043 619Q1025 716 946 795Q842 900 694 900Q546 900 441.50 795Q337 690 337 543Q337 395 441.50 291Q546 187 694 187Q842 187 946 291Q1025 370 1043 466M1043 958L1043 1600L1251 1600L1251 0L1043 0L1043 128Q893-27 694-27Q458-27 291.50 140Q125 307 125 543Q125 779 291.50 946Q458 1113 694 1113Q893 1113 1043 958M1361 1363Q1319 1405 1319 1466Q1319 1526 1361.50 1568Q1404 1610 1464 1610Q1523 1610 1566 1568Q1609 1526 1609 1466Q1609 1434 1597 1404L1489 1185L1300 1185L1361 1363Z"  horiz-adv-x="1619" vert-adv-y="2048"  />

      
      <glyph glyph-name="uni0110" unicode="&#x0110;" d="M150 903L150 1600L302 1600Q692 1598 910 1379Q1149 1138 1149 800Q1149 461 910 221Q692 2 302 0L150 0L150 697L-40 697L-40 903L150 903M357 903L704 903L704 697L357 697L357 210Q604 210 762 369Q940 547 940 800Q940 1052 762 1231Q604 1389 357 1389L357 903Z"  horiz-adv-x="1250" vert-adv-y="2048"  />

      
      <glyph glyph-name="uni0111" unicode="&#x0111;" d="M1043 466L1043 619Q1025 716 946 795Q842 900 694 900Q546 900 441.50 795Q337 690 337 543Q337 395 441.50 291Q546 187 694 187Q842 187 946 291Q1025 370 1043 466M1251 1225L1251 0L1043 0L1043 128Q893-27 694-27Q458-27 291.50 140Q125 307 125 543Q125 779 291.50 946Q458 1113 694 1113Q893 1113 1043 958L1043 1225L577 1225L577 1431L1043 1431L1043 1600L1251 1600L1251 1431L1421 1431L1421 1225L1251 1225Z"  horiz-adv-x="1401" vert-adv-y="2048"  />

      
      <glyph glyph-name="uni0112" unicode="&#x0112;" d="M1012 1600L1012 1393L357 1393L357 904L1012 904L1012 697L357 697L357 208L1012 208L1012 0L150 0L150 1600L1012 1600M298 2008L865 2008L865 1801L298 1801L298 2008Z"  horiz-adv-x="1137" vert-adv-y="2048"  />

      
      <glyph glyph-name="uni0113" unicode="&#x0113;" d="M470 233Q522 187 659 187Q807 187 912 291Q925 305 965 353L1172 279Q1096 174 1062 140Q895-27 659-27Q424-27 257 140Q90 307 90 543Q90 779 257 946Q424 1113 659 1113Q861 1113 1013 991Q1038 970 1062 946Q1072 936 1119 883L1015 778L470 233M816 873Q781 900 659 900Q512 900 407.50 795.50Q303 691 303 543Q303 422 330 386L816 873M348 1437L915 1437L915 1230L348 1230L348 1437Z"  horiz-adv-x="1262" vert-adv-y="2048"  />

      
      <glyph glyph-name="uni0114" unicode="&#x0114;" d="M1012 1600L1012 1393L357 1393L357 904L1012 904L1012 697L357 697L357 208L1012 208L1012 0L150 0L150 1600L1012 1600M493 1984Q504 1922 519 1907Q545 1881 582 1881Q618 1881 644 1908Q659 1922 669 1984L859 1984Q837 1861 779 1802Q698 1720 582 1720Q465 1720 384 1802Q321 1865 304 1984L493 1984Z"  horiz-adv-x="1137" vert-adv-y="2048"  />

      
      <glyph glyph-name="uni0115" unicode="&#x0115;" d="M470 233Q522 187 659 187Q807 187 912 291Q925 305 965 353L1172 279Q1096 174 1062 140Q895-27 659-27Q424-27 257 140Q90 307 90 543Q90 779 257 946Q424 1113 659 1113Q861 1113 1013 991Q1038 970 1062 946Q1072 936 1119 883L1015 778L470 233M816 873Q781 900 659 900Q512 900 407.50 795.50Q303 691 303 543Q303 422 330 386L816 873M543 1413Q554 1351 569 1336Q595 1310 632 1310Q668 1310 694 1337Q709 1351 719 1413L909 1413Q887 1290 829 1231Q748 1149 632 1149Q515 1149 434 1231Q371 1294 354 1413L543 1413Z"  horiz-adv-x="1262" vert-adv-y="2048"  />

      
      <glyph glyph-name="uni0116" unicode="&#x0116;" d="M1012 1600L1012 1393L357 1393L357 904L1012 904L1012 697L357 697L357 208L1012 208L1012 0L150 0L150 1600L1012 1600M582 2007Q636 2007 675 1969Q714 1931 714 1875Q714 1819 675 1781Q636 1743 582 1743Q527 1743 488 1781Q449 1819 449 1875Q449 1931 488 1969Q527 2007 582 2007Z"  horiz-adv-x="1137" vert-adv-y="2048"  />

      
      <glyph glyph-name="uni0117" unicode="&#x0117;" d="M470 233Q522 187 659 187Q807 187 912 291Q925 305 965 353L1172 279Q1096 174 1062 140Q895-27 659-27Q424-27 257 140Q90 307 90 543Q90 779 257 946Q424 1113 659 1113Q861 1113 1013 991Q1038 970 1062 946Q1072 936 1119 883L1015 778L470 233M816 873Q781 900 659 900Q512 900 407.50 795.50Q303 691 303 543Q303 422 330 386L816 873M632 1436Q686 1436 725 1398Q764 1360 764 1304Q764 1248 725 1210Q686 1172 632 1172Q577 1172 538 1210Q499 1248 499 1304Q499 1360 538 1398Q577 1436 632 1436Z"  horiz-adv-x="1262" vert-adv-y="2048"  />

      
      <glyph glyph-name="uni0118" unicode="&#x0118;" d="M679 0L150 0L150 1600L1012 1600L1012 1393L357 1393L357 904L1012 904L1012 697L357 697L357 208L1012 208L1012 0L857 0Q806-71 806-119Q806-135 812-148Q827-185 858-185Q895-185 954-134L1012-287Q890-337 827-337Q732-337 673-271Q625-217 625-141Q625-124 627-106Q635-51 679 0Z"  horiz-adv-x="1137" vert-adv-y="2048"  />

      
      <glyph glyph-name="uni0119" unicode="&#x0119;" d="M816 873Q781 900 659 900Q512 900 407.50 795.50Q303 691 303 543Q303 422 330 386L816 873M732-23Q696-27 659-27Q424-27 257 140Q90 307 90 543Q90 779 257 946Q424 1113 659 1113Q861 1113 1013 991Q1038 970 1062 946Q1072 936 1119 883L1015 778L470 233Q522 187 659 187Q807 187 912 291Q925 305 965 353L1172 279Q1096 174 1062 140Q1032 110 1001 86Q876-46 876-120Q876-136 882-149Q897-186 928-186Q965-186 1024-135L1082-288Q960-338 897-338Q802-338 743-272Q695-218 695-142Q695-125 697-107Q703-64 732-23Z"  horiz-adv-x="1262" vert-adv-y="2048"  />

      
      <glyph glyph-name="uni011A" unicode="&#x011A;" d="M1012 1600L1012 1393L357 1393L357 904L1012 904L1012 697L357 697L357 208L1012 208L1012 0L150 0L150 1600L1012 1600M892 1987L651 1749L504 1749L271 1987L490 1987L579 1905L671 1987L892 1987Z"  horiz-adv-x="1137" vert-adv-y="2048"  />

      
      <glyph glyph-name="uni011B" unicode="&#x011B;" d="M470 233Q522 187 659 187Q807 187 912 291Q925 305 965 353L1172 279Q1096 174 1062 140Q895-27 659-27Q424-27 257 140Q90 307 90 543Q90 779 257 946Q424 1113 659 1113Q861 1113 1013 991Q1038 970 1062 946Q1072 936 1119 883L1015 778L470 233M816 873Q781 900 659 900Q512 900 407.50 795.50Q303 691 303 543Q303 422 330 386L816 873M942 1416L701 1178L554 1178L321 1416L540 1416L629 1334L721 1416L942 1416Z"  horiz-adv-x="1262" vert-adv-y="2048"  />

      
      <glyph glyph-name="uni011C" unicode="&#x011C;" d="M1507 219Q1260-17 942-17Q603-17 364 222Q125 461 125 800Q125 1138 364 1378Q603 1618 942 1618Q1259 1618 1543 1359L1388 1218Q1174 1408 942 1408Q691 1408 512.50 1230Q334 1052 334 800Q334 547 512.50 369Q691 191 942 191Q1158 191 1300 305L1300 788L1507 788L1507 219M924 1749L832 1831L743 1749L524 1749L757 1987L904 1987L1145 1749L924 1749Z"  horiz-adv-x="1668" vert-adv-y="2048"  />

      
      <glyph glyph-name="uni011D" unicode="&#x011D;" d="M1042 623Q1023 718 946 795Q842 900 694 900Q546 900 441.50 795Q337 690 337 543Q337 395 441.50 290.50Q546 186 694 186Q842 186 946 290Q1023 367 1042 460L1042 623M1043 958L1043 1029L1251 1029L1251 264Q1251-36 1088-199Q921-346 685-346Q449-346 282-199Q248-165 173-61L379 13Q419-35 433-49Q538-153 685-153Q932-153 1027 171Q930-17 694-17Q458-17 291.50 145Q125 307 125 543Q125 779 291.50 945.50Q458 1112 694 1112Q893 1112 1043 958M778 1178L686 1260L597 1178L378 1178L611 1416L758 1416L999 1178L778 1178Z"  horiz-adv-x="1405" vert-adv-y="2048"  />

      
      <glyph glyph-name="uni011E" unicode="&#x011E;" d="M1507 219Q1260-17 942-17Q603-17 364 222Q125 461 125 800Q125 1138 364 1378Q603 1618 942 1618Q1259 1618 1543 1359L1388 1218Q1174 1408 942 1408Q691 1408 512.50 1230Q334 1052 334 800Q334 547 512.50 369Q691 191 942 191Q1158 191 1300 305L1300 788L1507 788L1507 219M746 1984Q757 1922 772 1907Q798 1881 835 1881Q871 1881 897 1908Q912 1922 922 1984L1112 1984Q1090 1861 1032 1802Q951 1720 835 1720Q718 1720 637 1802Q574 1865 557 1984L746 1984Z"  horiz-adv-x="1668" vert-adv-y="2048"  />

      
      <glyph glyph-name="uni011F" unicode="&#x011F;" d="M1042 623Q1023 718 946 795Q842 900 694 900Q546 900 441.50 795Q337 690 337 543Q337 395 441.50 290.50Q546 186 694 186Q842 186 946 290Q1023 367 1042 460L1042 623M1043 958L1043 1029L1251 1029L1251 264Q1251-36 1088-199Q921-346 685-346Q449-346 282-199Q248-165 173-61L379 13Q419-35 433-49Q538-153 685-153Q932-153 1027 171Q930-17 694-17Q458-17 291.50 145Q125 307 125 543Q125 779 291.50 945.50Q458 1112 694 1112Q893 1112 1043 958M600 1413Q611 1351 626 1336Q652 1310 689 1310Q725 1310 751 1337Q766 1351 776 1413L966 1413Q944 1290 886 1231Q805 1149 689 1149Q572 1149 491 1231Q428 1294 411 1413L600 1413Z"  horiz-adv-x="1405" vert-adv-y="2048"  />

      
      <glyph glyph-name="uni0120" unicode="&#x0120;" d="M1507 219Q1260-17 942-17Q603-17 364 222Q125 461 125 800Q125 1138 364 1378Q603 1618 942 1618Q1259 1618 1543 1359L1388 1218Q1174 1408 942 1408Q691 1408 512.50 1230Q334 1052 334 800Q334 547 512.50 369Q691 191 942 191Q1158 191 1300 305L1300 788L1507 788L1507 219M835 2007Q889 2007 928 1969Q967 1931 967 1875Q967 1819 928 1781Q889 1743 835 1743Q780 1743 741 1781Q702 1819 702 1875Q702 1931 741 1969Q780 2007 835 2007Z"  horiz-adv-x="1668" vert-adv-y="2048"  />

      
      <glyph glyph-name="uni0121" unicode="&#x0121;" d="M1042 623Q1023 718 946 795Q842 900 694 900Q546 900 441.50 795Q337 690 337 543Q337 395 441.50 290.50Q546 186 694 186Q842 186 946 290Q1023 367 1042 460L1042 623M1043 958L1043 1029L1251 1029L1251 264Q1251-36 1088-199Q921-346 685-346Q449-346 282-199Q248-165 173-61L379 13Q419-35 433-49Q538-153 685-153Q932-153 1027 171Q930-17 694-17Q458-17 291.50 145Q125 307 125 543Q125 779 291.50 945.50Q458 1112 694 1112Q893 1112 1043 958M689 1436Q743 1436 782 1398Q821 1360 821 1304Q821 1248 782 1210Q743 1172 689 1172Q634 1172 595 1210Q556 1248 556 1304Q556 1360 595 1398Q634 1436 689 1436Z"  horiz-adv-x="1405" vert-adv-y="2048"  />

      
      <glyph glyph-name="uni0122" unicode="&#x0122;" d="M780-2Q544 42 364 222Q125 461 125 800Q125 1138 364 1378Q603 1618 942 1618Q1259 1618 1543 1359L1388 1218Q1174 1408 942 1408Q691 1408 512.50 1230Q334 1052 334 800Q334 547 512.50 369Q691 191 942 191Q1158 191 1300 305L1300 788L1507 788L1507 219Q1260-17 942-17L923-17L913-44Q987-82 1008-133Q1012-147 1015-160Q1018-173 1018-186Q1018-229 987-267Q938-326 843-340Q824-343 799-343Q741-343 650-328L685-202Q742-228 778-228Q784-228 789-227Q820-223 829-192Q832-185 832-177Q832-173 831-169Q825-141 739-113L780-2Z"  horiz-adv-x="1668" vert-adv-y="2048"  />

      
      <glyph glyph-name="uni0123" unicode="&#x0123;" d="M1042 623Q1023 718 946 795Q842 900 694 900Q546 900 441.50 795Q337 690 337 543Q337 395 441.50 290.50Q546 186 694 186Q842 186 946 290Q1023 367 1042 460L1042 623M1043 958L1043 1029L1251 1029L1251 264Q1251-36 1088-199Q921-346 685-346Q449-346 282-199Q248-165 173-61L379 13Q419-35 433-49Q538-153 685-153Q932-153 1027 171Q930-17 694-17Q458-17 291.50 145Q125 307 125 543Q125 779 291.50 945.50Q458 1112 694 1112Q893 1112 1043 958M788 1432Q830 1390 830 1329Q830 1269 787.50 1227Q745 1185 685 1185Q626 1185 583 1227Q540 1269 540 1329Q540 1361 552 1391L660 1610L849 1610L788 1432Z"  horiz-adv-x="1405" vert-adv-y="2048"  />

      
      <glyph glyph-name="uni0124" unicode="&#x0124;" d="M357 662L357 0L150 0L150 1600L357 1600L357 869L851 869L851 1600L1058 1600L1058 0L851 0L851 662L357 662M694 1749L602 1831L513 1749L294 1749L527 1987L674 1987L915 1749L694 1749Z"  horiz-adv-x="1208" vert-adv-y="2048"  />

      
      <glyph glyph-name="uni0125" unicode="&#x0125;" d="M150 1600L358 1600L358 918Q445 1085 610 1085Q775 1085 873.50 966.50Q972 848 975 669L975 0L768 0L768 661Q768 750 717.50 813.50Q667 877 558 877Q429 877 358 739L358 0L150 0L150 1600M694 1749L602 1831L513 1749L294 1749L527 1987L674 1987L915 1749L694 1749Z"  horiz-adv-x="1125" vert-adv-y="2048"  />

      
      <glyph glyph-name="uni0126" unicode="&#x0126;" d="M1058 1194L1058 0L851 0L851 662L357 662L357 0L150 0L150 1194L12 1194L12 1400L150 1400L150 1600L357 1600L357 1400L851 1400L851 1600L1058 1600L1058 1400L1196 1400L1196 1194L1058 1194M357 1194L357 869L851 869L851 1194L357 1194Z"  horiz-adv-x="1208" vert-adv-y="2048"  />

      
      <glyph glyph-name="uni0127" unicode="&#x0127;" d="M150 1431L150 1600L358 1600L358 1431L804 1431L804 1225L358 1225L358 918Q445 1085 610 1085Q775 1085 873.50 966.50Q972 848 975 669L975 0L768 0L768 661Q768 750 717.50 813.50Q667 877 558 877Q429 877 358 739L358 0L150 0L150 1225L10 1225L10 1431L150 1431Z"  horiz-adv-x="1125" vert-adv-y="2048"  />

      
      <glyph glyph-name="uni0128" unicode="&#x0128;" d="M377 1600L377 0L170 0L170 1600L377 1600M298 1946Q298 1946 329 1917Q360 1888 386 1888L386 1887Q416 1887 416 1926Q416 1952 403 1995L589 1995Q551 1775 442 1743Q414 1735 386 1735Q312 1735 252.50 1792Q193 1849 165 1849L161 1849Q131 1847 131 1810Q131 1785 145 1744L-42 1744Q-3 1964 107 1996Q135 2004 163 2004Q236 2004 298 1946Z"  horiz-adv-x="548" vert-adv-y="2048"  />

      
      <glyph glyph-name="uni0129" unicode="&#x0129;" d="M377 1030L377 0L170 0L170 1030L377 1030M298 1375Q298 1375 329 1346Q360 1317 386 1317L386 1316Q416 1316 416 1355Q416 1381 403 1424L589 1424Q551 1204 442 1172Q414 1164 386 1164Q312 1164 252.50 1221Q193 1278 165 1278L161 1278Q131 1276 131 1239Q131 1214 145 1173L-42 1173Q-3 1393 107 1425Q135 1433 163 1433Q236 1433 298 1375Z"  horiz-adv-x="548" vert-adv-y="2048"  />

      
      <glyph glyph-name="uni012A" unicode="&#x012A;" d="M377 1600L377 0L170 0L170 1600L377 1600M-10 2008L557 2008L557 1801L-10 1801L-10 2008Z"  horiz-adv-x="548" vert-adv-y="2048"  />

      
      <glyph glyph-name="uni012B" unicode="&#x012B;" d="M377 1030L377 0L170 0L170 1030L377 1030M-10 1437L557 1437L557 1230L-10 1230L-10 1437Z"  horiz-adv-x="548" vert-adv-y="2048"  />

      
      <glyph glyph-name="uni012C" unicode="&#x012C;" d="M377 1600L377 0L170 0L170 1600L377 1600M185 1984Q196 1922 211 1907Q237 1881 274 1881Q310 1881 336 1908Q351 1922 361 1984L551 1984Q529 1861 471 1802Q390 1720 274 1720Q157 1720 76 1802Q13 1865-4 1984L185 1984Z"  horiz-adv-x="548" vert-adv-y="2048"  />

      
      <glyph glyph-name="uni012D" unicode="&#x012D;" d="M377 1030L377 0L170 0L170 1030L377 1030M185 1413Q196 1351 211 1336Q237 1310 274 1310Q310 1310 336 1337Q351 1351 361 1413L551 1413Q529 1290 471 1231Q390 1149 274 1149Q157 1149 76 1231Q13 1294-4 1413L185 1413Z"  horiz-adv-x="548" vert-adv-y="2048"  />

      
      <glyph glyph-name="uni012E" unicode="&#x012E;" d="M170 100L170 1600L377 1600L377 0L222 0Q171-71 171-119Q171-135 177-148Q192-185 223-185Q260-185 319-134L377-287Q255-337 192-337Q97-337 38-271Q-10-217-10-141Q-10-124-8-106Q8 5 170 100Z"  horiz-adv-x="548" vert-adv-y="2048"  />

      
      <glyph glyph-name="uni012F" unicode="&#x012F;" d="M270 1452Q330 1452 373 1410Q416 1368 416 1307Q416 1246 373 1204Q330 1162 270 1162Q211 1162 168 1204Q125 1246 125 1307Q125 1368 168 1410Q211 1452 270 1452M167 73L167 1029L374 1029L374 0L261 0Q210-71 210-119Q210-135 216-148Q231-185 262-185Q299-185 358-134L416-287Q294-337 231-337Q136-337 77-271Q29-217 29-141Q29-124 31-106Q45-11 167 73Z"  horiz-adv-x="541" vert-adv-y="2048"  />

      
      <glyph glyph-name="uni0131" unicode="&#x0131;" d="M377 1030L377 0L170 0L170 1030L377 1030Z"  horiz-adv-x="548" vert-adv-y="2048"  />

      
      <glyph glyph-name="uni0132" unicode="&#x0132;" d="M377 1600L377 0L170 0L170 1600L377 1600M1329 343Q1329 177 1238 85Q1141-13 1003-13Q866-13 769.50 84.50Q673 182 673 344L837 408Q865 256 908 221Q940 194 994 194L998 194Q1055 195 1092 231Q1122 262 1122 352L1122 1600L1329 1600L1329 343Z"  horiz-adv-x="1485" vert-adv-y="2048"  />

      
      <glyph glyph-name="uni0133" unicode="&#x0133;" d="M374 1029L374 0L167 0L167 1029L374 1029M270 1452Q330 1452 373 1410Q416 1368 416 1307Q416 1246 373 1204Q330 1162 270 1162Q211 1162 168 1204Q125 1246 125 1307Q125 1368 168 1410Q211 1452 270 1452M590-10Q702 2 702 60L702 1029L909 1029L909 62Q909-191 590-216L590-10M805 1452Q865 1452 908 1410Q951 1368 951 1307Q951 1246 908 1204Q865 1162 805 1162Q746 1162 703 1204Q660 1246 660 1307Q660 1368 703 1410Q746 1452 805 1452Z"  horiz-adv-x="1102" vert-adv-y="2048"  />

      
      <glyph glyph-name="uni0134" unicode="&#x0134;" d="M781 343Q781 177 690 85Q593-13 455-13Q318-13 221.50 84.50Q125 182 125 344L289 408Q317 256 360 221Q392 194 446 194L450 194Q507 195 544 231Q574 262 574 352L574 1600L781 1600L781 343M743 1749L651 1831L562 1749L343 1749L576 1987L723 1987L964 1749L743 1749Z"  horiz-adv-x="937" vert-adv-y="2048"  />

      
      <glyph glyph-name="uni0135" unicode="&#x0135;" d="M151-10Q263 2 263 60L263 1029L470 1029L470 62Q470-191 151-216L151-10M443 1149L351 1231L262 1149L43 1149L276 1387L423 1387L664 1149L443 1149Z"  horiz-adv-x="685" vert-adv-y="2048"  />

      
      <glyph glyph-name="uni0136" unicode="&#x0136;" d="M357 755L357 0L150 0L150 1600L357 1600L357 1096L735 1600L997 1600L506 942L1117 0L866 0L371 772L357 755M670 17L647-44Q721-82 742-133Q746-147 749-160Q752-173 752-186Q752-229 721-267Q672-326 577-340Q558-343 533-343Q475-343 384-328L419-202Q476-228 512-228Q518-228 523-227Q554-223 563-192Q566-185 566-177Q566-173 565-169Q559-141 473-113L521 17L670 17Z"  horiz-adv-x="1206" vert-adv-y="2048"  />

      
      <glyph glyph-name="uni0137" unicode="&#x0137;" d="M785 1029L506 685L894 0L647 0L367 513L358 502L358 0L150 0L150 1415L358 1415L358 833L518 1029L785 1029M624 17L601-44Q675-82 696-133Q700-147 703-160Q706-173 706-186Q706-229 675-267Q626-326 531-340Q512-343 487-343Q429-343 338-328L373-202Q430-228 466-228Q472-228 477-227Q508-223 517-192Q520-185 520-177Q520-173 519-169Q513-141 427-113L475 17L624 17Z"  horiz-adv-x="944" vert-adv-y="2048"  />

      
      <glyph glyph-name="uni0138" unicode="&#x0138;" d="M784 1030L506 685L893 0L646 0L366 514L357 503L357 0L150 0L150 1030L357 1030L357 833L517 1030L784 1030Z"  horiz-adv-x="943" vert-adv-y="2048"  />

      
      <glyph glyph-name="uni0139" unicode="&#x0139;" d="M150 0L150 1600L357 1600L357 208L929 208L929 0L150 0M600 1937L789 1937L585 1658L437 1658L600 1937Z"  horiz-adv-x="1019" vert-adv-y="2048"  />

      
      <glyph glyph-name="uni013A" unicode="&#x013A;" d="M359 1601L359 0L151 0L151 1601L359 1601M300 1937L489 1937L285 1658L137 1658L300 1937Z"  horiz-adv-x="508" vert-adv-y="2048"  />

      
      <glyph glyph-name="uni013B" unicode="&#x013B;" d="M487 0L150 0L150 1600L357 1600L357 208L929 208L929 0L636 0L619-44Q693-82 714-133Q718-147 721-160Q724-173 724-186Q724-229 693-267Q644-326 549-340Q530-343 505-343Q447-343 356-328L391-202Q448-228 484-228Q490-228 495-227Q526-223 535-192Q538-185 538-177Q538-173 537-169Q531-141 445-113L487 0Z"  horiz-adv-x="1019" vert-adv-y="2048"  />

      
      <glyph glyph-name="uni013C" unicode="&#x013C;" d="M187 0L151 0L151 1601L359 1601L359 0L336 0L319-44Q393-82 414-133Q418-147 421-160Q424-173 424-186Q424-229 393-267Q344-326 249-340Q230-343 205-343Q147-343 56-328L91-202Q148-228 184-228Q190-228 195-227Q226-223 235-192Q238-185 238-177Q238-173 237-169Q231-141 145-113L187 0Z"  horiz-adv-x="508" vert-adv-y="2048"  />

      
      <glyph glyph-name="uni013D" unicode="&#x013D;" d="M127 0L127 1600L335 1600L335 208L897 208L897 0L127 0M611 1363Q569 1405 569 1466Q569 1526 611.50 1568Q654 1610 714 1610Q773 1610 816 1568Q859 1526 859 1466Q859 1434 847 1404L739 1185L550 1185L611 1363Z"  horiz-adv-x="956" vert-adv-y="2048"  />

      
      <glyph glyph-name="uni013E" unicode="&#x013E;" d="M335 1600L335 0L127 0L127 1600L335 1600M411 1363Q369 1405 369 1466Q369 1526 411.50 1568Q454 1610 514 1610Q573 1610 616 1568Q659 1526 659 1466Q659 1434 647 1404L539 1185L350 1185L411 1363Z"  horiz-adv-x="679" vert-adv-y="2048"  />

      
      <glyph glyph-name="uni013F" unicode="&#x013F;" d="M127 0L127 1600L335 1600L335 208L897 208L897 0L127 0M723 932Q777 932 816 893.50Q855 855 855 800Q855 745 816 706.50Q777 668 723 668Q669 668 629.50 706.50Q590 745 590 800Q590 855 629.50 893.50Q669 932 723 932Z"  horiz-adv-x="956" vert-adv-y="2048"  />

      
      <glyph glyph-name="uni0140" unicode="&#x0140;" d="M320 1600L320 0L112 0L112 1600L320 1600M513 932Q566 932 605.50 893.50Q645 855 645 800Q645 745 605.50 706.50Q566 668 513 668Q458 668 419 706.50Q380 745 380 800Q380 855 419 893.50Q458 932 513 932Z"  horiz-adv-x="595" vert-adv-y="2048"  />

      
      <glyph glyph-name="uni0141" unicode="&#x0141;" d="M419 919L838 1260L838 1002L419 661L419 208L981 208L981 0L211 0L211 491L0 320L0 578L211 749L211 1600L419 1600L419 919Z"  horiz-adv-x="1038" vert-adv-y="2048"  />

      
      <glyph glyph-name="uni0142" unicode="&#x0142;" d="M154 835L154 1600L362 1600L362 1004L517 1130L517 872L362 745L362 0L154 0L154 576L0 450L0 708L154 835Z"  horiz-adv-x="517" vert-adv-y="2048"  />

      
      <glyph glyph-name="uni0143" unicode="&#x0143;" d="M150 1600L339 1600L999 458L999 1600L1207 1600L1207 0L1026 0L357 1156L357 0L150 0L150 1600M739 1978L991 1978L719 1699L522 1699L739 1978Z"  horiz-adv-x="1357" vert-adv-y="2048"  />

      
      <glyph glyph-name="uni0144" unicode="&#x0144;" d="M358 753L358 0L150 0L150 1029L358 1029L358 909Q423 1085 619 1085Q786 1085 884.50 966.50Q983 848 986 669L986 0L779 0L779 661Q779 750 714 813.50Q649 877 559 877Q470 877 405 815Q369 778 358 753M629 1407L881 1407L609 1128L412 1128L629 1407Z"  horiz-adv-x="1139" vert-adv-y="2048"  />

      
      <glyph glyph-name="uni0145" unicode="&#x0145;" d="M150 1600L339 1600L999 458L999 1600L1207 1600L1207 0L1026 0L357 1156L357 0L150 0L150 1600M781 17L758-44Q832-82 853-133Q857-147 860-160Q863-173 863-186Q863-229 832-267Q783-326 688-340Q669-343 644-343Q586-343 495-328L530-202Q587-228 623-228Q629-228 634-227Q665-223 674-192Q677-185 677-177Q677-173 676-169Q670-141 584-113L632 17L781 17Z"  horiz-adv-x="1357" vert-adv-y="2048"  />

      
      <glyph glyph-name="uni0146" unicode="&#x0146;" d="M358 753L358 0L150 0L150 1029L358 1029L358 909Q423 1085 619 1085Q786 1085 884.50 966.50Q983 848 986 669L986 0L779 0L779 661Q779 750 714 813.50Q649 877 559 877Q470 877 405 815Q369 778 358 753M670 17L647-44Q721-82 742-133Q746-147 749-160Q752-173 752-186Q752-229 721-267Q672-326 577-340Q558-343 533-343Q475-343 384-328L419-202Q476-228 512-228Q518-228 523-227Q554-223 563-192Q566-185 566-177Q566-173 565-169Q559-141 473-113L521 17L670 17Z"  horiz-adv-x="1139" vert-adv-y="2048"  />

      
      </font>
</defs>
</svg>
